<?xml version="1.0" encoding="utf-8" standalone="yes"?>
<!DOCTYPE svg PUBLIC "-//W3C//DTD SVG 1.1//EN" "http://www.w3.org/Graphics/SVG/1.1/DTD/svg11.dtd">
<svg style="fill:none;stroke:none;fill-rule:evenodd;clip-rule:evenodd;stroke-linecap:round;stroke-linejoin:round;stroke-miterlimit:1.5;" version="1.1" xmlns="http://www.w3.org/2000/svg" xmlns:xlink="http://www.w3.org/1999/xlink" width="917" height="1147" viewBox="0 0 917 1147"><style class="text-font-style fontImports" data-font-family="DM Sans">@font-face {font-family: 'DM Sans Regular';src: url(https://fonts.napkin.ai/google-fonts/20250207/dm-sans/dm-sans_regular.ttf) format("truetype");font-weight: normal;font-style: normal;}</style><rect id="" x="0" y="0" width="917" height="1146.25" style="fill: #0d1425;"></rect><g id="items" style="isolation: isolate"><g id="blend" style="mix-blend-mode: normal"><g id="g-root-cp_0_g-0_1464k7zxxv2tl-fill" data-item-order="-784069" transform="translate(14, 368.7890625)"></g><g id="g-root-cp_0_g-0_1464k7zxxv2tl-stroke" data-item-order="-784069" transform="translate(14, 368.7890625)"><g id="cp_0_g-0_1464k7zxxv2tl-stroke" fill="none" stroke-linecap="round" stroke-linejoin="round" stroke-miterlimit="4" stroke="#ffffff" stroke-width="2" stroke-opacity="1"><g><path d="M 404.6675 207.333801C 404.6675 316.318201 316.3182 404.667501 207.3338 404.667501C 98.3493 404.667501 10 316.318201 10 207.333801C 10 98.349301 98.3493 10 207.3338 10C 316.3182 10 404.6675 98.349301 404.6675 207.333801Z"></path></g></g></g><g id="g-root-cp_6_g-6_zqb23jxxv3lu-fill" data-item-order="-784066" transform="translate(211, 737.19140625)"><g id="cp_6_g-6_zqb23jxxv3lu-fill-merged" stroke="none" fill="url(#gradient-36c3b1-201059217)" fill-opacity="1"><g><path d="M10.334 36.599C46.419 36.599 80.242 26.913 109.344 10L178.461 129.714C128.936 158.467 71.391 174.931 10 174.931L10.334 36.599 M250 246.934C250 240.306 244.627 234.934 238 234.934C231.373 234.934 226 240.306 226 246.934C226 253.561 231.373 258.934 238 258.934C244.627 258.934 250 253.561 250 246.934"></path></g></g></g><g id="g-root-cp_6_g-6_zqb23jxxv3lu-stroke" data-item-order="-784066" transform="translate(211, 737.19140625)"><g id="cp_6_g-6_zqb23jxxv3lu-stroke" fill="none" stroke-linecap="round" stroke-linejoin="round" stroke-miterlimit="4" stroke="#ffffff" stroke-width="2" stroke-opacity="1"><g><path d="M 10.3338 36.5989C 46.4188 36.5989 80.2415 26.9133 109.3442 10L 178.4609 129.7135C 128.9357 158.4673 71.3906 174.9314 10 174.9314L 10.3338 36.5989ZM 250 246.9336C 250 240.3062 244.6274 234.9336 238 234.9336C 231.3726 234.9336 226 240.3062 226 246.9336C 226 253.561 231.3726 258.9336 238 258.9336C 244.6274 258.9336 250 253.561 250 246.9336ZM 226 246.9336L 125 246.9336C 112.8497 246.9336 103 237.0839 103 224.9336L 103 161.9336"></path></g></g></g><g id="g-root-cp_5_g-5_quo1unxxv4ej-fill" data-item-order="-784062" transform="translate(310.34423828125, 664.6015625)"><g id="cp_5_g-5_quo1unxxv4ej-fill-merged" stroke="none" fill="url(#gradient-3d9d91-441957683)" fill-opacity="1"><g><path d="M79.117 202.304L10 82.59C39.979 65.168 64.95 40.075 82.225 10L201.939 79.117C172.511 130.152 130.056 172.729 79.117 202.304 M306.656 151.523C306.656 144.896 301.283 139.523 294.656 139.523C288.028 139.523 282.656 144.896 282.656 151.523C282.656 158.151 288.028 163.523 294.656 163.523C301.283 163.523 306.656 158.151 306.656 151.523"></path></g></g></g><g id="g-root-cp_5_g-5_quo1unxxv4ej-stroke" data-item-order="-784062" transform="translate(310.34423828125, 664.6015625)"><g id="cp_5_g-5_quo1unxxv4ej-stroke" fill="none" stroke-linecap="round" stroke-linejoin="round" stroke-miterlimit="4" stroke="#ffffff" stroke-width="2" stroke-opacity="1"><g><path d="M 79.1166 202.303901L 10 82.590401C 39.9792 65.1676 64.9496 40.075301 82.2247 10.000001L 201.9387 79.117001C 172.5111 130.152401 130.0562 172.728901 79.1166 202.303901ZM 306.6558 151.523401C 306.6558 144.896001 301.2832 139.523401 294.6558 139.523401C 288.0283 139.523401 282.6558 144.896001 282.6558 151.523401C 282.6558 158.150901 288.0283 163.523401 294.6558 163.523401C 301.2832 163.523401 306.6558 158.150901 306.6558 151.523401ZM 282.6558 151.523401L 145.8052 151.523401"></path></g></g></g><g id="g-root-cp_4_g-4_quo1unxxv4ek-fill" data-item-order="-784058" transform="translate(382.5689697265625, 566.125)"><g id="cp_4_g-4_quo1unxxv4ek-fill-merged" stroke="none" fill="url(#gradient-1a6b64-40214748)" fill-opacity="1"><g><path d="M10 108.478C26.604 79.571 36.099 46.061 36.099 10.334L174.431 10C174.431 71.033 158.158 128.266 129.714 177.595L10 108.478 M282.431 94C282.431 100.627 277.059 106 270.431 106C263.804 106 258.431 100.627 258.431 94C258.431 87.373 263.804 82 270.431 82C277.059 82 282.431 87.373 282.431 94"></path></g></g></g><g id="g-root-cp_4_g-4_quo1unxxv4ek-stroke" data-item-order="-784058" transform="translate(382.5689697265625, 566.125)"><g id="cp_4_g-4_quo1unxxv4ek-stroke" fill="none" stroke-linecap="round" stroke-linejoin="round" stroke-miterlimit="4" stroke="#ffffff" stroke-width="2" stroke-opacity="1"><g><path d="M 10 108.4782C 26.6039 79.5714 36.0986 46.0614 36.0986 10.3338L 174.4311 10C 174.4311 71.0332 158.158 128.2657 129.7141 177.5952L 10 108.4782ZM 282.4311 94C 282.4311 100.6274 277.0585 106 270.4311 106C 263.8037 106 258.4311 100.6274 258.4311 94C 258.4311 87.3726 263.8037 82 270.4311 82C 277.0585 82 282.4311 87.3726 282.4311 94ZM 258.4311 94L 163.9311 94"></path></g></g></g><g id="g-root-cp_3_g-3_mfh0tbxxv211-fill" data-item-order="-784054" transform="translate(381.7769775390625, 397.6640625)"><g id="cp_3_g-3_mfh0tbxxv211-fill-merged" stroke="none" fill="url(#gradient-5249f2-123262092)" fill-opacity="1"><g><path d="M36.89 178.794C36.89 142.503 27.093 108.5 10 79.285L130.005 10C158.758 59.525 175.223 117.07 175.223 178.461L36.89 178.794 M283.223 94.461C283.223 101.088 277.85 106.461 271.223 106.461C264.595 106.461 259.223 101.088 259.223 94.461C259.223 87.834 264.595 82.461 271.223 82.461C277.85 82.461 283.223 87.834 283.223 94.461"></path></g></g></g><g id="g-root-cp_3_g-3_mfh0tbxxv211-stroke" data-item-order="-784054" transform="translate(381.7769775390625, 397.6640625)"><g id="cp_3_g-3_mfh0tbxxv211-stroke" fill="none" stroke-linecap="round" stroke-linejoin="round" stroke-miterlimit="4" stroke="#ffffff" stroke-width="2" stroke-opacity="1"><g><path d="M 36.8901 178.7944C 36.8901 142.5029 27.0933 108.4996 10 79.2847L 130.0048 10C 158.7584 59.5251 175.2225 117.0702 175.2225 178.4607L 36.8901 178.7944ZM 283.2225 94.4609C 283.2225 101.0884 277.85 106.4609 271.2225 106.4609C 264.5951 106.4609 259.2225 101.0884 259.2225 94.4609C 259.2225 87.8335 264.5951 82.4609 271.2225 82.4609C 277.85 82.4609 283.2225 87.8335 283.2225 94.4609ZM 259.2225 94.4609L 164.7225 94.4609"></path></g></g></g><g id="g-root-cp_2_g-2_dju0kfxxv2tq-fill" data-item-order="-784050" transform="translate(309.1884765625, 274.84375)"><g id="cp_2_g-2_dju0kfxxv2tq-fill-merged" stroke="none" fill="url(#gradient-8543f6-329243703)" fill-opacity="1"><g><path d="M202.594 132.822L82.589 202.107C65.122 172.254 40.037 147.401 10 130.216L79.407 10C130.442 39.428 173.019 81.883 202.594 132.822 M307.811 61.281C307.811 67.909 302.439 73.281 295.811 73.281C289.184 73.281 283.811 67.909 283.811 61.281C283.811 54.654 289.184 49.281 295.811 49.281C302.439 49.281 307.811 54.654 307.811 61.281"></path></g></g></g><g id="g-root-cp_2_g-2_dju0kfxxv2tq-stroke" data-item-order="-784050" transform="translate(309.1884765625, 274.84375)"><g id="cp_2_g-2_dju0kfxxv2tq-stroke" fill="none" stroke-linecap="round" stroke-linejoin="round" stroke-miterlimit="4" stroke="#ffffff" stroke-width="2" stroke-opacity="1"><g><path d="M 202.593722 132.8223L 82.588922 202.1071C 65.122222 172.2539 40.036622 147.4008 10.000122 130.2156L 79.406622 10C 130.442222 39.4277 173.018722 81.8827 202.593722 132.8223ZM 307.811522 61.2813C 307.811522 67.9087 302.438922 73.2813 295.811522 73.2813C 289.184122 73.2813 283.811522 67.9087 283.811522 61.2813C 283.811522 54.6538 289.184122 49.2813 295.811522 49.2813C 302.438922 49.2813 307.811522 54.6538 307.811522 61.2813ZM 283.811522 61.2813L 146.960922 61.2813"></path></g></g></g><g id="g-root-cp_1_g-1_940ifzxxv3lz-fill" data-item-order="-784046" transform="translate(211, 146.125)"><defs><linearGradient id="gradient-36c3b1-201059217" x2="0" y2="1"><stop offset="0" stop-color="#2fd5c0"></stop><stop offset="1" stop-color="#3cb0a2"></stop></linearGradient><linearGradient id="gradient-3d9d91-441957683" x2="0" y2="1"><stop offset="0" stop-color="#3ab4a4"></stop><stop offset="1" stop-color="#40867d"></stop></linearGradient><linearGradient id="gradient-1a6b64-40214748" x2="0" y2="1"><stop offset="0" stop-color="#12877d"></stop><stop offset="1" stop-color="#214e4a"></stop></linearGradient><linearGradient id="gradient-5249f2-123262092" x2="0" y2="1"><stop offset="0" stop-color="#554bff"></stop><stop offset="1" stop-color="#4f46e5"></stop></linearGradient><linearGradient id="gradient-8543f6-329243703" x2="0" y2="1"><stop offset="0" stop-color="#8e4cff"></stop><stop offset="1" stop-color="#7c3aed"></stop></linearGradient><linearGradient id="gradient-8156aa-129878766" x2="0" y2="1"><stop offset="0" stop-color="#9561c8"></stop><stop offset="1" stop-color="#6c4b8c"></stop></linearGradient></defs><g id="cp_1_g-1_940ifzxxv3lz-fill-merged" stroke="none" fill="url(#gradient-8156aa-129878766)" fill-opacity="1"><g><path d="M177.595 138.717C128.266 110.273 71.033 94 10 94L10.334 233C45.942 233 79.348 242.431 108.189 258.933L177.595 138.717 M250 22C250 28.627 244.627 34 238 34C231.373 34 226 28.627 226 22C226 15.373 231.373 10 238 10C244.627 10 250 15.373 250 22"></path></g></g></g><g id="g-root-cp_1_g-1_940ifzxxv3lz-stroke" data-item-order="-784046" transform="translate(211, 146.125)"><g id="cp_1_g-1_940ifzxxv3lz-stroke" fill="none" stroke-linecap="round" stroke-linejoin="round" stroke-miterlimit="4" stroke="#ffffff" stroke-width="2" stroke-opacity="1"><g><path d="M 177.5952 138.717C 128.2656 110.2731 71.0332 94 10 94L 10.3338 233C 45.9422 233 79.3477 242.4315 108.1886 258.9326L 177.5952 138.717ZM 250 22C 250 28.6274 244.6274 34 238 34C 231.3726 34 226 28.6274 226 22C 226 15.3726 231.3726 10 238 10C 244.6274 10 250 15.3726 250 22ZM 226 22L 125 22C 112.8497 22 103 31.8497 103 44L 103 107"></path></g></g></g><g id="g-root-tx_2_8x5ahrxxwjd2-fill" data-item-order="0" transform="translate(386.359375, 356.125)"><g id="tx_2_8x5ahrxxwjd2-fill-merged" stroke="none" fill="#ffffff" fill-opacity="1"><g><text style="font: bold 30px &quot;DM Sans Regular&quot;, sans-serif; white-space: pre;" transform="translate(20.640625, 28)" font-weight="bold" font-size="30px" font-family="'DM Sans Regular', sans-serif"><tspan x="-8.64" y="19" dominant-baseline="ideographic">2</tspan></text></g></g></g><g id="g-root-tx_2_8x5ahrxxwjd2-stroke" data-item-order="0" transform="translate(386.359375, 356.125)"></g><g id="g-root-tx_pensamie_zs6hcvxxv2mb-fill" data-item-order="0" transform="translate(619, 302.125)"><g id="tx_pensamie_zs6hcvxxv2mb-fill-merged" stroke="none" fill="#ffffff" fill-opacity="1"><g><text style="font: bold 20px &quot;DM Sans Regular&quot;, sans-serif; white-space: pre;" transform="translate(10, 34)" font-weight="bold" font-size="20px" font-family="'DM Sans Regular', sans-serif"><tspan x="2" y="1" dominant-baseline="ideographic">Razonamiento </tspan><tspan x="2" y="25" dominant-baseline="ideographic">(Thought)</tspan></text></g></g></g><g id="g-root-tx_pensamie_zs6hcvxxv2mb-stroke" data-item-order="0" transform="translate(619, 302.125)"></g><g id="g-root-tx_elllmeva_qwjh3zxxv3f0-fill" data-item-order="0" transform="translate(619, 362.125)"><g id="tx_elllmeva_qwjh3zxxv3f0-fill-merged" stroke="none" fill="#ffffff" fill-opacity="1"><g><text style="font: bold 15px &quot;DM Sans Regular&quot;, sans-serif; white-space: pre;" transform="translate(10, 37)" font-weight="bold" font-size="15px" font-family="'DM Sans Regular', sans-serif"><tspan x="2" y="-8" dominant-baseline="ideographic">El LLM evalúa qué </tspan><tspan x="2" y="10" dominant-baseline="ideographic">información falta y decide el </tspan><tspan x="2" y="28" dominant-baseline="ideographic">plan de acción.</tspan></text></g></g></g><g id="g-root-tx_elllmeva_qwjh3zxxv3f0-stroke" data-item-order="0" transform="translate(619, 362.125)"></g><g id="g-root-tx_3_24rbzxxwgzz-fill" data-item-order="0" transform="translate(452.1328125, 476.125)"><g id="tx_3_24rbzxxwgzz-fill-merged" stroke="none" fill="#ffffff" fill-opacity="1"><g><text style="font: bold 30px &quot;DM Sans Regular&quot;, sans-serif; white-space: pre;" transform="translate(20.8671875, 28)" font-weight="bold" font-size="30px" font-family="'DM Sans Regular', sans-serif"><tspan x="-8.87" y="19" dominant-baseline="ideographic">3</tspan></text></g></g></g><g id="g-root-tx_3_24rbzxxwgzz-stroke" data-item-order="0" transform="translate(452.1328125, 476.125)"></g><g id="g-root-tx_accinact_dbpufzxxwgel-fill" data-item-order="0" transform="translate(667, 458.125)"><g id="tx_accinact_dbpufzxxwgel-fill-merged" stroke="none" fill="#ffffff" fill-opacity="1"><g><text style="font: bold 20px &quot;DM Sans Regular&quot;, sans-serif; white-space: pre;" transform="translate(10, 34)" font-weight="bold" font-size="20px" font-family="'DM Sans Regular', sans-serif"><tspan x="2" y="1" dominant-baseline="ideographic">Selección de </tspan><tspan x="2" y="25" dominant-baseline="ideographic">Herramienta</tspan></text></g></g></g><g id="g-root-tx_accinact_dbpufzxxwgel-stroke" data-item-order="0" transform="translate(667, 458.125)"></g><g id="g-root-tx_bucleder_1414rj3xxwhl7-fill" data-item-order="0" transform="translate(116.859375, 509.125)"><g id="tx_bucleder_1414rj3xxwhl7-fill-merged" stroke="none" fill="#ffffff" fill-opacity="1"><g><text style="font: bold 20px &quot;DM Sans Regular&quot;, sans-serif; white-space: pre;" transform="translate(104.140625, 34)" font-weight="bold" font-size="20px" font-family="'DM Sans Regular', sans-serif"><tspan x="-92.14" y="1" dominant-baseline="ideographic">Motor de Inferencia </tspan><tspan x="-51.61" y="25" dominant-baseline="ideographic">del Agente</tspan></text></g></g></g><g id="g-root-tx_bucleder_1414rj3xxwhl7-stroke" data-item-order="0" transform="translate(116.859375, 509.125)"></g><g id="g-root-tx_elllmsol_8vwcbjxxwh6u-fill" data-item-order="0" transform="translate(667, 518.125)"><g id="tx_elllmsol_8vwcbjxxwh6u-fill-merged" stroke="none" fill="#ffffff" fill-opacity="1"><g><text style="font: bold 15px &quot;DM Sans Regular&quot;, sans-serif; white-space: pre;" transform="translate(10, 37)" font-weight="bold" font-size="15px" font-family="'DM Sans Regular', sans-serif"><tspan x="2" y="-8" dominant-baseline="ideographic">El LLM define la función de </tspan><tspan x="2" y="10" dominant-baseline="ideographic">Unity Catalog a llamar y </tspan><tspan x="2" y="28" dominant-baseline="ideographic">extrae los parámetros.	</tspan></text></g></g></g><g id="g-root-tx_elllmsol_8vwcbjxxwh6u-stroke" data-item-order="0" transform="translate(667, 518.125)"></g><g id="g-root-tx_1_dcysm7xxwikt-fill" data-item-order="0" transform="translate(270.3125, 290.125)"><g id="tx_1_dcysm7xxwikt-fill-merged" stroke="none" fill="#ffffff" fill-opacity="1"><g><text style="font: bold 30px &quot;DM Sans Regular&quot;, sans-serif; white-space: pre;" transform="translate(16.6875, 28)" font-weight="bold" font-size="30px" font-family="'DM Sans Regular', sans-serif"><tspan x="-4.69" y="19" dominant-baseline="ideographic">1</tspan></text></g></g></g><g id="g-root-tx_1_dcysm7xxwikt-stroke" data-item-order="0" transform="translate(270.3125, 290.125)"></g><g id="g-root-tx_procesoi_zlb9enxxwidg-fill" data-item-order="0" transform="translate(117.765625, 569.125)"><g id="tx_procesoi_zlb9enxxwidg-fill-merged" stroke="none" fill="#ffffff" fill-opacity="1"><g><text style="font: bold 15px &quot;DM Sans Regular&quot;, sans-serif; white-space: pre;" transform="translate(103.234375, 37)" font-weight="bold" font-size="15px" font-family="'DM Sans Regular', sans-serif"><tspan x="-65.81" y="-8" dominant-baseline="ideographic">Ciclo iterativo para </tspan><tspan x="-57.75" y="10" dominant-baseline="ideographic">razonar, ejecutar </tspan><tspan x="-91.23" y="28" dominant-baseline="ideographic">herramientas y responder.</tspan></text></g></g></g><g id="g-root-tx_procesoi_zlb9enxxwidg-stroke" data-item-order="0" transform="translate(117.765625, 569.125)"></g><g id="g-root-tx_4_1unfb6nxxwhl4-fill" data-item-order="0" transform="translate(451.890625, 620.125)"><g id="tx_4_1unfb6nxxwhl4-fill-merged" stroke="none" fill="#ffffff" fill-opacity="1"><g><text style="font: bold 30px &quot;DM Sans Regular&quot;, sans-serif; white-space: pre;" transform="translate(21.109375, 28)" font-weight="bold" font-size="30px" font-family="'DM Sans Regular', sans-serif"><tspan x="-9.11" y="19" dominant-baseline="ideographic">4</tspan></text></g></g></g><g id="g-root-tx_4_1unfb6nxxwhl4-stroke" data-item-order="0" transform="translate(451.890625, 620.125)"></g><g id="g-root-tx_observac_1uljvxbxxwikn-fill" data-item-order="0" transform="translate(667, 626.125)"><g id="tx_observac_1uljvxbxxwikn-fill-merged" stroke="none" fill="#ffffff" fill-opacity="1"><g><text style="font: bold 20px &quot;DM Sans Regular&quot;, sans-serif; white-space: pre;" transform="translate(10, 22)" font-weight="bold" font-size="20px" font-family="'DM Sans Regular', sans-serif"><tspan x="2" y="13" dominant-baseline="ideographic">Ejecución (Action)</tspan></text></g></g></g><g id="g-root-tx_observac_1uljvxbxxwikn-stroke" data-item-order="0" transform="translate(667, 626.125)"></g><g id="g-root-tx_elusuari_1d30in3xxv476-fill" data-item-order="0" transform="translate(463, 170.125)"><g id="tx_elusuari_1d30in3xxv476-fill-merged" stroke="none" fill="#ffffff" fill-opacity="1"><g><text style="font: bold 15px &quot;DM Sans Regular&quot;, sans-serif; white-space: pre;" transform="translate(10, 37)" font-weight="bold" font-size="15px" font-family="'DM Sans Regular', sans-serif"><tspan x="2" y="-8" dominant-baseline="ideographic">El agente recibe la consulta </tspan><tspan x="2" y="10" dominant-baseline="ideographic">y carga el contexto del </tspan><tspan x="2" y="28" dominant-baseline="ideographic">historial.	</tspan></text></g></g></g><g id="g-root-tx_elusuari_1d30in3xxv476-stroke" data-item-order="0" transform="translate(463, 170.125)"></g><g id="g-root-tx_elorques_1q5qdsvxxwjcw-fill" data-item-order="0" transform="translate(667, 662.125)"><g id="tx_elorques_1q5qdsvxxwjcw-fill-merged" stroke="none" fill="#ffffff" fill-opacity="1"><g><text style="font: bold 15px &quot;DM Sans Regular&quot;, sans-serif; white-space: pre;" transform="translate(10, 46)" font-weight="bold" font-size="15px" font-family="'DM Sans Regular', sans-serif"><tspan x="2" y="-17" dominant-baseline="ideographic">El orquestador de </tspan><tspan x="2" y="1" dominant-baseline="ideographic">Databricks ejecuta la </tspan><tspan x="2" y="19" dominant-baseline="ideographic">función en Unity Catalog y </tspan><tspan x="2" y="37" dominant-baseline="ideographic">recupera el resultado.	</tspan></text></g></g></g><g id="g-root-tx_elorques_1q5qdsvxxwjcw-stroke" data-item-order="0" transform="translate(667, 662.125)"></g><g id="g-root-tx_inicio_1hiu0rjxxv3ex-fill" data-item-order="0" transform="translate(463, 134.125)"><g id="tx_inicio_1hiu0rjxxv3ex-fill-merged" stroke="none" fill="#ffffff" fill-opacity="1"><g><text style="font: bold 20px &quot;DM Sans Regular&quot;, sans-serif; white-space: pre;" transform="translate(10, 22)" font-weight="bold" font-size="20px" font-family="'DM Sans Regular', sans-serif"><tspan x="2" y="13" dominant-baseline="ideographic">Consulta de Usuario</tspan></text></g></g></g><g id="g-root-tx_inicio_1hiu0rjxxv3ex-stroke" data-item-order="0" transform="translate(463, 134.125)"></g><g id="g-root-tx_5_1q7lt27xxwidd-fill" data-item-order="0" transform="translate(385.828125, 740.125)"><g id="tx_5_1q7lt27xxwidd-fill-merged" stroke="none" fill="#ffffff" fill-opacity="1"><g><text style="font: bold 30px &quot;DM Sans Regular&quot;, sans-serif; white-space: pre;" transform="translate(21.171875, 28)" font-weight="bold" font-size="30px" font-family="'DM Sans Regular', sans-serif"><tspan x="-9.17" y="19" dominant-baseline="ideographic">5</tspan></text></g></g></g><g id="g-root-tx_5_1q7lt27xxwidd-stroke" data-item-order="0" transform="translate(385.828125, 740.125)"></g><g id="g-root-tx_exploran_4o70bjxxv4e8-fill" data-item-order="0" transform="translate(218.3125, 68.125)"><g id="tx_exploran_4o70bjxxv4e8-fill-merged" stroke="none" fill="#ffffff" fill-opacity="1"><g><text style="font: bold 25px &quot;DM Sans Regular&quot;, sans-serif; white-space: pre;" transform="translate(278.6875, 25)" font-weight="bold" font-size="25px" font-family="'DM Sans Regular', sans-serif"><tspan x="-266.69" y="16" dominant-baseline="ideographic">El Bucle de Ejecución del Agente (ReAct Loop)</tspan></text></g></g></g><g id="g-root-tx_exploran_4o70bjxxv4e8-stroke" data-item-order="0" transform="translate(218.3125, 68.125)"></g><g id="g-root-tx_6_1cwrrrzxxwgsi-fill" data-item-order="0" transform="translate(265.5625, 807.125)"><g id="tx_6_1cwrrrzxxwgsi-fill-merged" stroke="none" fill="#ffffff" fill-opacity="1"><g><text style="font: bold 30px &quot;DM Sans Regular&quot;, sans-serif; white-space: pre;" transform="translate(21.4375, 28)" font-weight="bold" font-size="30px" font-family="'DM Sans Regular', sans-serif"><tspan x="-9.44" y="19" dominant-baseline="ideographic">6</tspan></text></g></g></g><g id="g-root-tx_6_1cwrrrzxxwgsi-stroke" data-item-order="0" transform="translate(265.5625, 807.125)"></g><g id="g-root-tx_severifi_13z9c9rxxwikq-fill" data-item-order="0" transform="translate(619, 842.125)"><g id="tx_severifi_13z9c9rxxwikq-fill-merged" stroke="none" fill="#ffffff" fill-opacity="1"><g><text style="font: bold 15px &quot;DM Sans Regular&quot;, sans-serif; white-space: pre;" transform="translate(10, 37)" font-weight="bold" font-size="15px" font-family="'DM Sans Regular', sans-serif"><tspan x="2" y="-8" dominant-baseline="ideographic">El LLM analiza la salida de la </tspan><tspan x="2" y="10" dominant-baseline="ideographic">herramienta para validar si </tspan><tspan x="2" y="28" dominant-baseline="ideographic">cumplió el objetivo.</tspan></text></g></g></g><g id="g-root-tx_severifi_13z9c9rxxwikq-stroke" data-item-order="0" transform="translate(619, 842.125)"></g><g id="g-root-tx_respuest_zjfu5bxxwjcz-fill" data-item-order="0" transform="translate(463, 950.125)"><g id="tx_respuest_zjfu5bxxwjcz-fill-merged" stroke="none" fill="#ffffff" fill-opacity="1"><g><text style="font: bold 20px &quot;DM Sans Regular&quot;, sans-serif; white-space: pre;" transform="translate(10, 22)" font-weight="bold" font-size="20px" font-family="'DM Sans Regular', sans-serif"><tspan x="2" y="13" dominant-baseline="ideographic">Generación Final</tspan></text></g></g></g><g id="g-root-tx_respuest_zjfu5bxxwjcz-stroke" data-item-order="0" transform="translate(463, 950.125)"></g><g id="g-root-tx_elllmred_qofazjxxwgzw-fill" data-item-order="0" transform="translate(463, 986.125)"><g id="tx_elllmred_qofazjxxwgzw-fill-merged" stroke="none" fill="#ffffff" fill-opacity="1"><g><text style="font: bold 15px &quot;DM Sans Regular&quot;, sans-serif; white-space: pre;" transform="translate(10, 37)" font-weight="bold" font-size="15px" font-family="'DM Sans Regular', sans-serif"><tspan x="2" y="-8" dominant-baseline="ideographic">El LLM sintetiza los hallazgos </tspan><tspan x="2" y="10" dominant-baseline="ideographic">y entrega la respuesta final </tspan><tspan x="2" y="28" dominant-baseline="ideographic">al usuario.</tspan></text></g></g></g><g id="g-root-tx_elllmred_qofazjxxwgzw-stroke" data-item-order="0" transform="translate(463, 986.125)"></g><g id="g-root-tx_evaluaci_1cuwcinxxwhs1-fill" data-item-order="0" transform="translate(619, 782.125)"><g id="tx_evaluaci_1cuwcinxxwhs1-fill-merged" stroke="none" fill="#ffffff" fill-opacity="1"><g><text style="font: bold 20px &quot;DM Sans Regular&quot;, sans-serif; white-space: pre;" transform="translate(10, 34)" font-weight="bold" font-size="20px" font-family="'DM Sans Regular', sans-serif"><tspan x="2" y="1" dominant-baseline="ideographic">Observación </tspan><tspan x="2" y="25" dominant-baseline="ideographic">(Observation)</tspan></text></g></g></g><g id="g-root-tx_evaluaci_1cuwcinxxwhs1-stroke" data-item-order="0" transform="translate(619, 782.125)"></g></g></g></svg>