<?xml version="1.0" encoding="utf-8" standalone="yes"?>
<!DOCTYPE svg PUBLIC "-//W3C//DTD SVG 1.1//EN" "http://www.w3.org/Graphics/SVG/1.1/DTD/svg11.dtd">
<svg style="fill:none;stroke:none;fill-rule:evenodd;clip-rule:evenodd;stroke-linecap:round;stroke-linejoin:round;stroke-miterlimit:1.5;" version="1.1" xmlns="http://www.w3.org/2000/svg" xmlns:xlink="http://www.w3.org/1999/xlink" width="1406" height="791" viewBox="0 0 1406 791"><style class="text-font-style fontImports" data-font-family="DM Sans">@font-face {font-family: 'DM Sans Regular';src: url(https://fonts.napkin.ai/google-fonts/20250207/dm-sans/dm-sans_regular.ttf) format("truetype");font-weight: normal;font-style: normal;}</style><rect id="" x="0" y="0" width="1405.614" height="790.658" style="fill: #0d1425;"></rect><g id="items" style="isolation: isolate"><g id="blend" style="mix-blend-mode: normal"><g id="g-root-cp_1_g-1_1cu92zzwk1cej-fill" data-item-order="-1440" transform="translate(701.5289916992188, 128)"><g id="cp_1_g-1_1cu92zzwk1cej-fill-merged" stroke="none" fill="url(#gradient-986dfb-210025521)" fill-opacity="1"><g><path d="M16 22C16 25.314 18.686 28 22 28C25.314 28 28 25.314 28 22C28 18.686 25.314 16 22 16C18.686 16 16 18.686 16 22"></path></g></g></g><g id="g-root-cp_1_g-1_1cu92zzwk1cej-stroke" data-item-order="-1440" transform="translate(701.5289916992188, 128)"><g id="cp_1_g-1_1cu92zzwk1cej-stroke" fill="none" stroke-linecap="round" stroke-linejoin="round" stroke-miterlimit="4" stroke="#ffffff" stroke-width="2" stroke-opacity="1"><g><path d="M 16 22C 16 25.313709 18.686292 28 22 28C 25.313709 28 28 25.313709 28 22C 28 18.686292 25.313709 16 22 16C 18.686292 16 16 18.686292 16 22"></path></g></g><g id="cp_1_g-1_1cu92zzwk1cej-stroke" fill="none" stroke-linecap="round" stroke-linejoin="round" stroke-miterlimit="4" stroke="#ffffff" stroke-width="2" stroke-opacity="1"><g><path d="M 10 22C 10 28.627417 15.372583 34 22 34C 28.627417 34 34 28.627417 34 22C 34 15.372583 28.627417 10 22 10C 15.372583 10 10 15.372583 10 22M 34 22L 70 22"></path></g></g></g><g id="g-root-cp_5_g-5_dcy06nwk1atf-fill" data-item-order="-1440" transform="translate(665.5289916992188, 643.97509765625)"><g id="cp_5_g-5_dcy06nwk1atf-fill-merged" stroke="none" fill="url(#gradient-90f8eb-347116704)" fill-opacity="1"><g><path d="M52 22C52 25.314 54.686 28 58 28C61.314 28 64 25.314 64 22C64 18.686 61.314 16 58 16C54.686 16 52 18.686 52 22"></path></g></g></g><g id="g-root-cp_5_g-5_dcy06nwk1atf-stroke" data-item-order="-1440" transform="translate(665.5289916992188, 643.97509765625)"><g id="cp_5_g-5_dcy06nwk1atf-stroke" fill="none" stroke-linecap="round" stroke-linejoin="round" stroke-miterlimit="4" stroke="#ffffff" stroke-width="2" stroke-opacity="1"><g><path d="M 52 22C 52 25.3137 54.6863 28 58 28C 61.3137 28 64 25.3137 64 22C 64 18.6863 61.3137 16 58 16C 54.6863 16 52 18.6863 52 22ZM 46 22C 46 28.6274 51.3726 34 58 34C 64.6274 34 70 28.6274 70 22C 70 15.3726 64.6274 10 58 10C 51.3726 10 46 15.3726 46 22ZM 46 22L 10 22"></path></g></g></g><g id="g-root-cp_5_g-5_1ltn473x3s2kq-fill" data-item-order="-1440" transform="translate(701.5289916992188, 543.97998046875)"><g id="cp_5_g-5_1ltn473x3s2kq-fill-merged" stroke="none" fill="url(#gradient-44e3cf-19050597)" fill-opacity="1"><g><path d="M16 22C16 25.314 18.686 28 22 28C25.314 28 28 25.314 28 22C28 18.686 25.314 16 22 16C18.686 16 16 18.686 16 22"></path></g></g></g><g id="g-root-cp_5_g-5_1ltn473x3s2kq-stroke" data-item-order="-1440" transform="translate(701.5289916992188, 543.97998046875)"><g id="cp_5_g-5_1ltn473x3s2kq-stroke" fill="none" stroke-linecap="round" stroke-linejoin="round" stroke-miterlimit="4" stroke="#ffffff" stroke-width="2" stroke-opacity="1"><g><path d="M 16 22C 16 25.313709 18.686292 28 22 28C 25.313709 28 28 25.313709 28 22C 28 18.686292 25.313709 16 22 16C 18.686292 16 16 18.686292 16 22"></path></g></g><g id="cp_5_g-5_1ltn473x3s2kq-stroke" fill="none" stroke-linecap="round" stroke-linejoin="round" stroke-miterlimit="4" stroke="#ffffff" stroke-width="2" stroke-opacity="1"><g><path d="M 10 22C 10 28.627417 15.372583 34 22 34C 28.627417 34 34 28.627417 34 22C 34 15.372583 28.627417 10 22 10C 15.372583 10 10 15.372583 10 22M 34 22L 70 22"></path></g></g></g><g id="g-root-cp_4_g-4_hs517zwk1d6x-fill" data-item-order="-1440" transform="translate(665.5289916992188, 443.98486328125)"><g id="cp_4_g-4_hs517zwk1d6x-fill-merged" stroke="none" fill="url(#gradient-07b2a3-365173347)" fill-opacity="1"><g><path d="M52 22C52 25.314 54.686 28 58 28C61.314 28 64 25.314 64 22C64 18.686 61.314 16 58 16C54.686 16 52 18.686 52 22"></path></g></g></g><g id="g-root-cp_4_g-4_hs517zwk1d6x-stroke" data-item-order="-1440" transform="translate(665.5289916992188, 443.98486328125)"><g id="cp_4_g-4_hs517zwk1d6x-stroke" fill="none" stroke-linecap="round" stroke-linejoin="round" stroke-miterlimit="4" stroke="#ffffff" stroke-width="2" stroke-opacity="1"><g><path d="M 52 22C 52 25.3137 54.6863 28 58 28C 61.3137 28 64 25.3137 64 22C 64 18.6863 61.3137 16 58 16C 54.6863 16 52 18.6863 52 22ZM 46 22C 46 28.6274 51.3726 34 58 34C 64.6274 34 70 28.6274 70 22C 70 15.3726 64.6274 10 58 10C 51.3726 10 46 15.3726 46 22ZM 46 22L 10 22"></path></g></g></g><g id="g-root-cp_3_g-3_v3ljlbwk1blz-fill" data-item-order="-1440" transform="translate(701.5289916992188, 343.990234375)"><g id="cp_3_g-3_v3ljlbwk1blz-fill-merged" stroke="none" fill="url(#gradient-5249f2-123262092)" fill-opacity="1"><g><path d="M16 22C16 25.314 18.686 28 22 28C25.314 28 28 25.314 28 22C28 18.686 25.314 16 22 16C18.686 16 16 18.686 16 22"></path></g></g></g><g id="g-root-cp_3_g-3_v3ljlbwk1blz-stroke" data-item-order="-1440" transform="translate(701.5289916992188, 343.990234375)"><g id="cp_3_g-3_v3ljlbwk1blz-stroke" fill="none" stroke-linecap="round" stroke-linejoin="round" stroke-miterlimit="4" stroke="#ffffff" stroke-width="2" stroke-opacity="1"><g><path d="M 16 22C 16 25.313709 18.686292 28 22 28C 25.313709 28 28 25.313709 28 22C 28 18.686292 25.313709 16 22 16C 18.686292 16 16 18.686292 16 22"></path></g></g><g id="cp_3_g-3_v3ljlbwk1blz-stroke" fill="none" stroke-linecap="round" stroke-linejoin="round" stroke-miterlimit="4" stroke="#ffffff" stroke-width="2" stroke-opacity="1"><g><path d="M 10 22C 10 28.627417 15.372583 34 22 34C 28.627417 34 34 28.627417 34 22C 34 15.372583 28.627417 10 22 10C 15.372583 10 10 15.372583 10 22M 34 22L 70 22"></path></g></g></g><g id="g-root-cp_2_g-2_18efkvjwk1d6t-fill" data-item-order="-1440" transform="translate(665.5289916992188, 223.9951171875)"><defs><linearGradient id="gradient-986dfb-210025521" x2="0" y2="1"><stop offset="0" stop-color="#a47dff"></stop><stop offset="1" stop-color="#8b5cf6"></stop></linearGradient><linearGradient id="gradient-90f8eb-347116704" x2="0" y2="1"><stop offset="0" stop-color="#c6fff8"></stop><stop offset="1" stop-color="#5af1de"></stop></linearGradient><linearGradient id="gradient-44e3cf-19050597" x2="0" y2="1"><stop offset="0" stop-color="#5af1de"></stop><stop offset="1" stop-color="#2dd4bf"></stop></linearGradient><linearGradient id="gradient-07b2a3-365173347" x2="0" y2="1"><stop offset="0" stop-color="#00d0bd"></stop><stop offset="1" stop-color="#0d9488"></stop></linearGradient><linearGradient id="gradient-5249f2-123262092" x2="0" y2="1"><stop offset="0" stop-color="#554bff"></stop><stop offset="1" stop-color="#4f46e5"></stop></linearGradient><linearGradient id="gradient-8543f6-329243703" x2="0" y2="1"><stop offset="0" stop-color="#8e4cff"></stop><stop offset="1" stop-color="#7c3aed"></stop></linearGradient></defs><g id="cp_2_g-2_18efkvjwk1d6t-fill-merged" stroke="none" fill="url(#gradient-8543f6-329243703)" fill-opacity="1"><g><path d="M52 22C52 25.314 54.686 28 58 28C61.314 28 64 25.314 64 22C64 18.686 61.314 16 58 16C54.686 16 52 18.686 52 22"></path></g></g></g><g id="g-root-cp_2_g-2_18efkvjwk1d6t-stroke" data-item-order="-1440" transform="translate(665.5289916992188, 223.9951171875)"><g id="cp_2_g-2_18efkvjwk1d6t-stroke" fill="none" stroke-linecap="round" stroke-linejoin="round" stroke-miterlimit="4" stroke="#ffffff" stroke-width="2" stroke-opacity="1"><g><path d="M 52 22C 52 25.3137 54.6863 28 58 28C 61.3137 28 64 25.3137 64 22C 64 18.6863 61.3137 16 58 16C 54.6863 16 52 18.6863 52 22ZM 46 22C 46 28.6274 51.3726 34 58 34C 64.6274 34 70 28.6274 70 22C 70 15.3726 64.6274 10 58 10C 51.3726 10 46 15.3726 46 22ZM 46 22L 10 22"></path></g></g></g><g id="g-root-tx_estructu_4hazxrwk1bm5-fill" data-item-order="0" transform="translate(283.1488037109375, 29.2001953125)"><g id="tx_estructu_4hazxrwk1bm5-fill-merged" stroke="none" fill="#ffffff" fill-opacity="1"><g><text style="font: bold 48px &quot;DM Sans Regular&quot;, sans-serif; white-space: pre;" transform="translate(440.38006591796875, 38.7998046875)" font-weight="bold" font-size="48px" font-family="'DM Sans Regular', sans-serif"><tspan x="-380.74" y="31.2" dominant-baseline="ideographic">Estructura de una Traza en MLflow</tspan></text></g></g></g><g id="g-root-tx_estructu_4hazxrwk1bm5-stroke" data-item-order="0" transform="translate(283.1488037109375, 29.2001953125)"></g><g id="g-root-cp_2_text-2_18efkvjwk1d6s-fill" data-item-order="0" transform="translate(713.5288696289062, 247.9951171875)"></g><g id="g-root-cp_2_text-2_18efkvjwk1d6s-stroke" data-item-order="0" transform="translate(713.5288696289062, 247.9951171875)"><g id="cp_2_text-2_18efkvjwk1d6s-stroke" fill="none" stroke-linecap="round" stroke-linejoin="round" stroke-miterlimit="4" stroke="#ffffff" stroke-width="2" stroke-opacity="1"><g><path d="M 10 10L 10 105.994991"></path></g></g></g><g id="g-root-tx_recupera_qq9xtbwk5kw5-fill" data-item-order="0" transform="translate(120.00006103515625, 279.33056640625)"><g id="tx_recupera_qq9xtbwk5kw5-fill-merged" stroke="none" fill="#ffffff" fill-opacity="1"><g><text style="font: bold 20px &quot;DM Sans Regular&quot;, sans-serif; white-space: pre;" transform="translate(466, 36.658203125)" font-weight="bold" font-size="20px" font-family="'DM Sans Regular', sans-serif"><tspan x="-368.17" y="-0.66" dominant-baseline="ideographic">Tiempo total de búsqueda y filtrado del </tspan><tspan x="-196.59" y="26" dominant-baseline="ideographic">contexto de negocio.</tspan></text></g></g></g><g id="g-root-tx_recupera_qq9xtbwk5kw5-stroke" data-item-order="0" transform="translate(120.00006103515625, 279.33056640625)"></g><g id="g-root-ic_redi_dffwj3wk5jba-fill" data-item-order="0" transform="translate(605.5289916992188, 211.9951171875)"></g><g id="g-root-ic_redi_dffwj3wk5jba-stroke" data-item-order="0" transform="translate(605.5289916992188, 211.9951171875)"><g id="ic_redi_dffwj3wk5jba-stroke" fill="none" stroke-linecap="round" stroke-linejoin="round" stroke-miterlimit="4" stroke="#ffffff" stroke-width="2" stroke-opacity="1"><g><path d="M 27.099979 35.5C 35.715599 35.5 42.700001 32.455399 42.700001 28.6999C 42.700001 24.944359 35.715599 21.8999 27.099979 21.8999C 18.484341 21.8999 11.5 24.944359 11.5 28.6999C 11.5 32.455399 18.484341 35.5 27.099979 35.5ZM 11.5 29.299801L 11.5 49.699799C 11.5 53.499802 18.499981 56.499802 27.099979 56.499802C 35.700001 56.499802 42.700001 53.499802 42.700001 49.699799L 42.700001 29.299801M 48.5 29.5L 56.5 29.5L 56.5 21.5C 54.900002 21.5 53.5 20.1 53.5 18.5C 53.5 16.9 54.900002 15.5 56.5 15.5L 56.5 11.5L 26.5 11.5L 26.5 15.5C 27.5 15.5 28.30002 15.9 28.70002 16.5M 35.5 16.5L 35.5 17.5M 41.5 16.5L 41.5 19.5M 47.5 16.5L 47.5 21.5M 10 10M 23.50672 50.885799L 23.50672 46.6586M 23.50672 46.6586L 23.50672 40.7402L 27.311319 40.7402C 28.94562 40.7402 30.270399 42.064999 30.270399 43.699402L 30.270399 43.699402C 30.270399 45.333599 28.94562 46.6586 27.311319 46.6586L 23.50672 46.6586ZM 10 10M 27.73414 46.658401L 30.693199 50.885799"></path></g></g></g><g id="g-root-ic_1_1luvvxrwk9slp-fill" data-item-order="0" transform="translate(773.5289916992188, 331.990234375)"></g><g id="g-root-ic_1_1luvvxrwk9slp-stroke" data-item-order="0" transform="translate(773.5289916992188, 331.990234375)"><g id="ic_1_1luvvxrwk9slp-stroke" fill="none" stroke-linecap="round" stroke-linejoin="round" stroke-miterlimit="4" stroke="#ffffff" stroke-width="2" stroke-opacity="1"><g><path d="M 35 44.057999C 35 49.060593 39.055405 53.115997 44.057999 53.115997C 49.060593 53.115997 53.115997 49.060593 53.115997 44.057999C 53.115997 39.055405 49.060593 35 44.057999 35C 39.055405 35 35 39.055405 35 44.057999ZM 57 57L 50.504002 50.504002M 21 51L 27 51M 27.002001 41L 27.002001 51M 16.5 50C 16.223858 50 16 50.223858 16 50.5C 16 50.776142 16.223858 51 16.5 51C 16.776142 51 17 50.776142 17 50.5C 17 50.223858 16.776142 50 16.5 50L 16.5 50M 11.5 50C 11.223858 50 11 50.223858 11 50.5C 11 50.776142 11.223858 51 11.5 51C 11.776142 51 12 50.776142 12 50.5C 12 50.223858 11.776142 50 11.5 50L 11.5 50M 18.5 35.5C 18.223858 35.5 18 35.723858 18 36C 18 36.276142 18.223858 36.5 18.5 36.5C 18.776142 36.5 19 36.276142 19 36C 19 35.723858 18.776142 35.5 18.5 35.5L 18.5 35.5M 23.5 35.5C 23.223858 35.5 23 35.723858 23 36C 23 36.276142 23.223858 36.5 23.5 36.5C 23.776142 36.5 24 36.276142 24 36C 24 35.723858 23.776142 35.5 23.5 35.5L 23.5 35.5M 37 31L 16 31C 13.238577 31 11 33.238579 11 36C 11 38.761425 13.238577 41 16 41L 29 41M 18.5 25.5C 18.223858 25.5 18 25.723858 18 26C 18 26.276142 18.223858 26.5 18.5 26.5C 18.776142 26.5 19 26.276142 19 26C 19 25.723858 18.776142 25.5 18.5 25.5L 18.5 25.5M 23.5 25.5C 23.223858 25.5 23 25.723858 23 26C 23 26.276142 23.223858 26.5 23.5 26.5C 23.776142 26.5 24 26.276142 24 26C 24 25.723858 23.776142 25.5 23.5 25.5L 23.5 25.5M 45 26C 45 23.238577 42.761425 21 40 21L 16 21C 13.238577 21 11 23.238577 11 26C 11 28.761423 13.238577 31 16 31L 37 31M 18.5 15.5C 18.223858 15.5 18 15.723858 18 16C 18 16.276142 18.223858 16.5 18.5 16.5C 18.776142 16.5 19 16.276142 19 16C 19 15.723858 18.776142 15.5 18.5 15.5L 18.5 15.5M 23.5 15.5C 23.223858 15.5 23 15.723858 23 16C 23 16.276142 23.223858 16.5 23.5 16.5C 23.776142 16.5 24 16.276142 24 16C 24 15.723858 23.776142 15.5 23.5 15.5L 23.5 15.5M 45 16C 45 13.238576 42.761425 11 40 11L 16 11C 13.238577 11 11 13.238577 11 16C 11 18.761425 13.238577 21 16 21L 40 21C 42.761425 21 45 18.761425 45 16Z"></path></g></g></g><g id="g-root-tx_08s_mbpdv3wk9s03-fill" data-item-order="0" transform="translate(834.0444946289062, 331.990234375)"><g id="tx_08s_mbpdv3wk9s03-fill-merged" stroke="none" fill="#ffffff" fill-opacity="1"><g><text style="font: bold 32px &quot;DM Sans Regular&quot;, sans-serif; white-space: pre;" transform="translate(10, 29.2001953125)" font-weight="bold" font-size="32px" font-family="'DM Sans Regular', sans-serif"><tspan x="2" y="20.8" dominant-baseline="ideographic">[0.8s] Búsqueda Vectorial (Hijo)</tspan></text></g></g></g><g id="g-root-tx_08s_mbpdv3wk9s03-stroke" data-item-order="0" transform="translate(834.0444946289062, 331.990234375)"></g><g id="g-root-cp_3_text-3_zjf1prwk1atq-fill" data-item-order="0" transform="translate(713.5288696289062, 367.990234375)"></g><g id="g-root-cp_3_text-3_zjf1prwk1atq-stroke" data-item-order="0" transform="translate(713.5288696289062, 367.990234375)"><g id="cp_3_text-3_zjf1prwk1atq-stroke" fill="none" stroke-linecap="round" stroke-linejoin="round" stroke-miterlimit="4" stroke="#ffffff" stroke-width="2" stroke-opacity="1"><g><path d="M 10 10L 10 85.994999"></path></g></g></g><g id="g-root-tx_bsquedav_90vckvwk9qf8-fill" data-item-order="0" transform="translate(834.0444946289062, 390.6689453125)"><g id="tx_bsquedav_90vckvwk9qf8-fill-merged" stroke="none" fill="#ffffff" fill-opacity="1"><g><text style="font: bold 20px &quot;DM Sans Regular&quot;, sans-serif; white-space: pre;" transform="translate(10, 36.658203125)" font-weight="bold" font-size="20px" font-family="'DM Sans Regular', sans-serif"><tspan x="2" y="-0.66" dominant-baseline="ideographic">Consulta de similitud semántica en Databricks </tspan><tspan x="2" y="26" dominant-baseline="ideographic">Vector Search.</tspan></text></g></g></g><g id="g-root-tx_bsquedav_90vckvwk9qf8-stroke" data-item-order="0" transform="translate(834.0444946289062, 390.6689453125)"></g><g id="g-root-ic_find_91hwtrwjsw78-fill" data-item-order="0" transform="translate(605.5289916992188, 431.98486328125)"></g><g id="g-root-ic_find_91hwtrwjsw78-stroke" data-item-order="0" transform="translate(605.5289916992188, 431.98486328125)"><g id="ic_find_91hwtrwjsw78-stroke" fill="none" stroke-linecap="round" stroke-linejoin="round" stroke-miterlimit="4" stroke="#ffffff" stroke-width="2" stroke-opacity="1"><g><path d="M 51 19C 51 14.581722 47.418278 11 43 11L 19 11C 14.581722 11 11 14.581722 11 19L 11 23L 51 23L 51 19ZM 27 11C 21 11 21 19 21 19L 21 23M 35 11C 41 11 41 19 41 19L 41 23M 51 30L 51 23L 11 23L 11 41C 11 43.209141 12.790861 45 15 45L 29 45M 11 27L 27 27L 27 29C 27 31.209139 28.790861 33 31 33L 31 33C 33.209137 33 35 31.209139 35 29L 35 27L 51 27M 31 27L 31 29M 21 27L 21 45M 33 45C 33 51.627419 38.372581 57 45 57C 51.627419 57 57 51.627419 57 45C 57 38.372581 51.627419 33 45 33C 38.372581 33 33 38.372581 33 45ZM 50.348 41.512001L 44.537998 49.257999C 44.276516 49.605347 43.877514 49.822548 43.443855 49.853607C 43.010197 49.884663 42.584312 49.72654 42.276001 49.419998L 39.276001 46.419998"></path></g></g></g><g id="g-root-tx_09s_1cymhrjwjsxs2-fill" data-item-order="0" transform="translate(-16.08697509765625, 431.98486328125)"><g id="tx_09s_1cymhrjwjsxs2-fill-merged" stroke="none" fill="#ffffff" fill-opacity="1"><g><text style="font: bold 32px &quot;DM Sans Regular&quot;, sans-serif; white-space: pre;" transform="translate(613.006591796875, 29.2001953125)" font-weight="bold" font-size="32px" font-family="'DM Sans Regular', sans-serif"><tspan x="-561.38" y="20.8" dominant-baseline="ideographic"> [0.9s] Llamada a Herramienta (Padre)</tspan></text></g></g></g><g id="g-root-tx_09s_1cymhrjwjsxs2-stroke" data-item-order="0" transform="translate(-16.08697509765625, 431.98486328125)"></g><g id="g-root-tx_extraerc_18gb04vwk1c7b-fill" data-item-order="0" transform="translate(834.0444946289062, 165.328125)"><g id="tx_extraerc_18gb04vwk1c7b-fill-merged" stroke="none" fill="#ffffff" fill-opacity="1"><g><text style="font: bold 20px &quot;DM Sans Regular&quot;, sans-serif; white-space: pre;" transform="translate(10, 36.658203125)" font-weight="bold" font-size="20px" font-family="'DM Sans Regular', sans-serif"><tspan x="2" y="-0.66" dominant-baseline="ideographic">El orquestador procesa el prompt de entrada </tspan><tspan x="2" y="26" dominant-baseline="ideographic">y carga el historial.</tspan></text></g></g></g><g id="g-root-tx_extraerc_18gb04vwk1c7b-stroke" data-item-order="0" transform="translate(834.0444946289062, 165.328125)"></g><g id="g-root-cp_4_text-4_qns1gvwk1ce8-fill" data-item-order="0" transform="translate(713.5288696289062, 467.98486328125)"></g><g id="g-root-cp_4_text-4_qns1gvwk1ce8-stroke" data-item-order="0" transform="translate(713.5288696289062, 467.98486328125)"><g id="cp_4_text-4_qns1gvwk1ce8-stroke" fill="none" stroke-linecap="round" stroke-linejoin="round" stroke-miterlimit="4" stroke="#ffffff" stroke-width="2" stroke-opacity="1"><g><path d="M 10 10L 10 85.994999"></path></g></g></g><g id="g-root-tx_llamarhe_mcby3zwjsxs3-fill" data-item-order="0" transform="translate(96.00006103515625, 491.328125)"><g id="tx_llamarhe_mcby3zwjsxs3-fill-merged" stroke="none" fill="#ffffff" fill-opacity="1"><g><text style="font: bold 20px &quot;DM Sans Regular&quot;, sans-serif; white-space: pre;" transform="translate(500.9195556640625, 36.658203125)" font-weight="bold" font-size="20px" font-family="'DM Sans Regular', sans-serif"><tspan x="-344.5" y="-0.66" dominant-baseline="ideographic">Invocación de la herramienta externa </tspan><tspan x="-185.48" y="26" dominant-baseline="ideographic">verificar_inventario.</tspan></text></g></g></g><g id="g-root-tx_llamarhe_mcby3zwjsxs3-stroke" data-item-order="0" transform="translate(96.00006103515625, 491.328125)"></g><g id="g-root-cp_1_text-1_1lpw38vwk1blu-fill" data-item-order="0" transform="translate(713.5288696289062, 152)"></g><g id="g-root-cp_1_text-1_1lpw38vwk1blu-stroke" data-item-order="0" transform="translate(713.5288696289062, 152)"><g id="cp_1_text-1_1lpw38vwk1blu-stroke" fill="none" stroke-linecap="round" stroke-linejoin="round" stroke-miterlimit="4" stroke="#ffffff" stroke-width="2" stroke-opacity="1"><g><path d="M 10 10L 10 81.994995"></path></g></g></g><g id="g-root-cp_5_text-5_1uonncvx3s4xt-fill" data-item-order="0" transform="translate(713.5288696289062, 567.97998046875)"></g><g id="g-root-cp_5_text-5_1uonncvx3s4xt-stroke" data-item-order="0" transform="translate(713.5288696289062, 567.97998046875)"><g id="cp_5_text-5_1uonncvx3s4xt-stroke" fill="none" stroke-linecap="round" stroke-linejoin="round" stroke-miterlimit="4" stroke="#ffffff" stroke-width="2" stroke-opacity="1"><g><path d="M 10 10L 10 85.994999"></path></g></g></g><g id="g-root-tx_08s_hsrlgvwjyi31-fill" data-item-order="0" transform="translate(834.0444946289062, 536.77978515625)"><g id="tx_08s_hsrlgvwjyi31-fill-merged" stroke="none" fill="#ffffff" fill-opacity="1"><g><text style="font: bold 32px &quot;DM Sans Regular&quot;, sans-serif; white-space: pre;" transform="translate(10, 29.2001953125)" font-weight="bold" font-size="32px" font-family="'DM Sans Regular', sans-serif"><tspan x="2" y="20.8" dominant-baseline="ideographic">[0.8s] Ejecución de Función (Hijo)</tspan></text></g></g></g><g id="g-root-tx_08s_hsrlgvwjyi31-stroke" data-item-order="0" transform="translate(834.0444946289062, 536.77978515625)"></g><g id="g-root-ic_4_znsghbwk2qde-fill" data-item-order="0" transform="translate(606.6260375976562, 631)"></g><g id="g-root-ic_4_znsghbwk2qde-stroke" data-item-order="0" transform="translate(606.6260375976562, 631)"><g id="ic_4_znsghbwk2qde-stroke" fill="none" stroke-linecap="round" stroke-linejoin="round" stroke-miterlimit="4" stroke="#ffffff" stroke-width="2" stroke-opacity="1"><g><path d="M 29.965372 31.751476L 37.780087 31.751476L 37.585304 38.24361L 45.181862 31.751476L 53.167988 31.751476C 53.858635 31.754066 54.521854 31.481388 55.010952 30.993753C 55.500046 30.506119 55.774712 29.843716 55.774189 29.153065L 55.774189 13.570382C 55.774189 12.136395 54.611713 10.973918 53.177723 10.973918L 29.803701 10.973918C 28.368954 10.972841 27.20529 12.135633 27.20529 13.570382L 27.20529 23.634846M 37.269753 26.556599L 42.139343 15.843506L 47.00893 26.556599M 38.348854 24.182188L 45.929829 24.182188M 32.400166 53.826294C 32.400166 54.90205 31.528091 55.774128 30.452332 55.774128L 12.921814 55.774128C 11.846054 55.774128 10.973979 54.90205 10.973979 53.826294L 10.973979 47.008869C 10.973979 41.092194 15.770394 36.295776 21.687073 36.295776C 27.60375 36.295776 32.400166 41.092194 32.400166 47.008869ZM 10.973979 49.930622L 32.400166 49.930622M 16.817484 44.574074C 16.817484 44.843014 17.035503 45.061035 17.304443 45.061035C 17.573383 45.061035 17.791401 44.843014 17.791401 44.574074C 17.791401 44.305134 17.573383 44.087116 17.304443 44.087116C 17.035503 44.087116 16.817484 44.305134 16.817484 44.574074M 25.582743 44.574074C 25.582743 44.843014 25.800762 45.061035 26.069702 45.061035C 26.33864 45.061035 26.55666 44.843014 26.55666 44.574074C 26.55666 44.305134 26.33864 44.087116 26.069702 44.087116C 25.800762 44.087116 25.582743 44.305134 25.582743 44.574074M 21.687073 36.295776L 21.687073 32.400105M 18.76532 29.478352C 18.76532 31.091991 20.073433 32.400105 21.687073 32.400105C 23.300713 32.400105 24.608826 31.091991 24.608826 29.478352C 24.608826 27.864714 23.300713 26.556599 21.687073 26.556599C 20.073433 26.556599 18.76532 27.864714 18.76532 29.478352"></path></g></g></g><g id="g-root-tx_ejecucin_1hkz3wjykg6-fill" data-item-order="0" transform="translate(834.0444946289062, 595.341796875)"><g id="tx_ejecucin_1hkz3wjykg6-fill-merged" stroke="none" fill="#ffffff" fill-opacity="1"><g><text style="font: bold 20px &quot;DM Sans Regular&quot;, sans-serif; white-space: pre;" transform="translate(10, 36.658203125)" font-weight="bold" font-size="20px" font-family="'DM Sans Regular', sans-serif"><tspan x="2" y="-0.66" dominant-baseline="ideographic">Cómputo y consulta segura de la función en Unity </tspan><tspan x="2" y="26" dominant-baseline="ideographic">Catalog.</tspan></text></g></g></g><g id="g-root-tx_ejecucin_1hkz3wjykg6-stroke" data-item-order="0" transform="translate(834.0444946289062, 595.341796875)"></g><g id="g-root-tx_03s_8zmhkfwk2rd4-fill" data-item-order="0" transform="translate(0.00006103515625, 629.57470703125)"><g id="tx_03s_8zmhkfwk2rd4-fill-merged" stroke="none" fill="#ffffff" fill-opacity="1"><g><text style="font: bold 32px &quot;DM Sans Regular&quot;, sans-serif; white-space: pre;" transform="translate(596.9195556640625, 29.2001953125)" font-weight="bold" font-size="32px" font-family="'DM Sans Regular', sans-serif"><tspan x="-566.58" y="20.8" dominant-baseline="ideographic">[0.3s] Generación de Respuesta (LLM)</tspan></text></g></g></g><g id="g-root-tx_03s_8zmhkfwk2rd4-stroke" data-item-order="0" transform="translate(0.00006103515625, 629.57470703125)"></g><g id="g-root-tx_01s_1lrrii7wk1ame-fill" data-item-order="0" transform="translate(834.0444946289062, 116)"><g id="tx_01s_1lrrii7wk1ame-fill-merged" stroke="none" fill="#ffffff" fill-opacity="1"><g><text style="font: bold 32px &quot;DM Sans Regular&quot;, sans-serif; white-space: pre;" transform="translate(10, 29.2001953125)" font-weight="bold" font-size="32px" font-family="'DM Sans Regular', sans-serif"><tspan x="2" y="20.8" dominant-baseline="ideographic">[0.1s] Recepción de Consulta</tspan></text></g></g></g><g id="g-root-tx_01s_1lrrii7wk1ame-stroke" data-item-order="0" transform="translate(834.0444946289062, 116)"></g><g id="g-root-tx_generaci_1hefzvzwk2r61-fill" data-item-order="0" transform="translate(112.70867919921875, 679.341796875)"><g id="tx_generaci_1hefzvzwk2r61-fill-merged" stroke="none" fill="#ffffff" fill-opacity="1"><g><text style="font: bold 20px &quot;DM Sans Regular&quot;, sans-serif; white-space: pre;" transform="translate(484.2109375, 36.658203125)" font-weight="bold" font-size="20px" font-family="'DM Sans Regular', sans-serif"><tspan x="-377.14" y="-0.66" dominant-baseline="ideographic">El modelo procesa los datos y redacta la </tspan><tspan x="-191.95" y="26" dominant-baseline="ideographic">respuesta al usuario.</tspan></text></g></g></g><g id="g-root-tx_generaci_1hefzvzwk2r61-stroke" data-item-order="0" transform="translate(112.70867919921875, 679.341796875)"></g><g id="g-root-ic_2_140hi0fwk1czk-fill" data-item-order="0" transform="translate(773.5289916992188, 116)"></g><g id="g-root-ic_2_140hi0fwk1czk-stroke" data-item-order="0" transform="translate(773.5289916992188, 116)"><g id="ic_2_140hi0fwk1czk-stroke" fill="none" stroke-linecap="round" stroke-linejoin="round" stroke-miterlimit="4" stroke="#ffffff" stroke-width="2" stroke-opacity="1"><g><path d="M 57 29.559999C 57 30.66457 56.104568 31.559999 55 31.559999L 44 31.559999L 37 37.559998L 37 31.559999L 35 31.559999C 33.895432 31.559999 33 30.66457 33 29.559999L 33 13.559999C 33 12.455431 33.895432 11.559999 35 11.559999L 55 11.559999C 56.104568 11.559999 57 12.455431 57 13.559999ZM 34 57C 34 57 29.959999 55.214001 27.136 54.169998C 25.284 53.48 25.548 50.355999 26.620001 49.181999C 28.499647 47.339817 29.428118 44.735825 29.137999 42.119999C 29.298967 40.409821 28.719233 38.712666 27.545622 37.458366C 26.372013 36.204071 24.717093 35.512932 23 35.560001C 21.282907 35.512932 19.627987 36.204071 18.454378 37.458366C 17.280769 38.712666 16.701033 40.409821 16.862 42.120003C 16.57188 44.735825 17.500351 47.339817 19.380001 49.181999C 20.452 50.355999 20.716 53.48 18.864 54.169998C 16.040001 55.214001 12 57 12 57M 39 16.559999L 43 20.560001L 39 24.560001M 45 23.560001L 53 23.560001"></path></g></g></g><g id="g-root-tx_11s_18hjyb3wk5ij0-fill" data-item-order="0" transform="translate(87.28131103515625, 216.794921875)"><g id="tx_11s_18hjyb3wk5ij0-fill-merged" stroke="none" fill="#ffffff" fill-opacity="1"><g><text style="font: bold 32px &quot;DM Sans Regular&quot;, sans-serif; white-space: pre;" transform="translate(513.725341796875, 29.2001953125)" font-weight="bold" font-size="32px" font-family="'DM Sans Regular', sans-serif"><tspan x="-464.77" y="20.8" dominant-baseline="ideographic">[1.1s] Recuperación RAG (Padre)</tspan></text></g></g></g><g id="g-root-tx_11s_18hjyb3wk5ij0-stroke" data-item-order="0" transform="translate(87.28131103515625, 216.794921875)"></g></g></g></svg>