<?xml version="1.0" encoding="utf-8" standalone="yes"?>
<!DOCTYPE svg PUBLIC "-//W3C//DTD SVG 1.1//EN" "http://www.w3.org/Graphics/SVG/1.1/DTD/svg11.dtd">
<svg style="fill:none;stroke:none;fill-rule:evenodd;clip-rule:evenodd;stroke-linecap:round;stroke-linejoin:round;stroke-miterlimit:1.5;" version="1.1" xmlns="http://www.w3.org/2000/svg" xmlns:xlink="http://www.w3.org/1999/xlink" width="1286" height="723" viewBox="0 0 1286 723"><style class="text-font-style fontImports" data-font-family="DM Sans">@font-face {font-family: 'DM Sans Regular';src: url(https://fonts.napkin.ai/google-fonts/20250207/dm-sans/dm-sans_regular.ttf) format("truetype");font-weight: normal;font-style: normal;}</style><rect id="" x="0" y="0" width="1285.303" height="722.983" style="fill: #0d1425;"></rect><g id="items" style="isolation: isolate"><g id="blend" style="mix-blend-mode: normal"><g id="g-root-cp_1_g-1_1hi7a2t1wmnbig-fill" data-item-order="-595061" transform="translate(286.1082763671875, 173)"><g id="cp_1_g-1_1hi7a2t1wmnbig-fill-merged" stroke="none" fill="url(#gradient-3b3784-157678356)" fill-opacity="1"><g><path d="M10 10 H297.988 V237.988 H10 V10"></path></g></g></g><g id="g-root-cp_1_g-1_1hi7a2t1wmnbig-stroke" data-item-order="-595061" transform="translate(286.1082763671875, 173)"><g id="cp_1_g-1_1hi7a2t1wmnbig-stroke" fill="none" stroke-linecap="round" stroke-linejoin="round" stroke-miterlimit="4" stroke="#ffffff" stroke-width="2" stroke-opacity="1"><g><path d="M 10 10L 297.987732 10L 297.987732 237.988037L 10 237.988037L 10 10Z"></path></g></g></g><g id="g-root-cp_2_g-2_1d2dryd1wmncap-fill" data-item-order="-595049" transform="translate(574.102294921875, 173)"><g id="cp_2_g-2_1d2dryd1wmncap-fill-merged" stroke="none" fill="url(#gradient-53338b-479797644)" fill-opacity="1"><g><path d="M10 10 H297.791 V237.988 H10 V10"></path></g></g></g><g id="g-root-cp_2_g-2_1d2dryd1wmncap-stroke" data-item-order="-595049" transform="translate(574.102294921875, 173)"><g id="cp_2_g-2_1d2dryd1wmncap-stroke" fill="none" stroke-linecap="round" stroke-linejoin="round" stroke-miterlimit="4" stroke="#ffffff" stroke-width="2" stroke-opacity="1"><g><path d="M 10 10L 297.791138 10L 297.791138 237.988037L 10 237.988037L 10 10Z"></path></g></g></g><g id="g-root-sy_0_line_146qrph1wmnd3e-fill" data-item-order="-595034" transform="translate(574.102294921875, 149)"></g><g id="g-root-sy_0_line_146qrph1wmnd3e-stroke" data-item-order="-595034" transform="translate(574.102294921875, 149)"><g id="sy_0_line_146qrph1wmnd3e-stroke" fill="none" stroke-linecap="round" stroke-linejoin="round" stroke-miterlimit="4" stroke="#ffffff" stroke-width="2" stroke-opacity="1"><g><path d="M 10 261.99C 10 127.45 10 145.04 10 12.07"></path><path d="M 16.5 18L 10 11.5L 3.5 18" stroke-dasharray="none"></path></g></g></g><g id="g-root-cp_3_g-3_zqx9l11wmndvn-fill" data-item-order="-595025" transform="translate(285.99822998046875, 400.988037109375)"><g id="cp_3_g-3_zqx9l11wmndvn-fill-merged" stroke="none" fill="url(#gradient-876dd3-241661493)" fill-opacity="1"><g><path d="M10 10 H298.209 V213.995 H10 V10"></path></g></g></g><g id="g-root-cp_3_g-3_zqx9l11wmndvn-stroke" data-item-order="-595025" transform="translate(285.99822998046875, 400.988037109375)"><g id="cp_3_g-3_zqx9l11wmndvn-stroke" fill="none" stroke-linecap="round" stroke-linejoin="round" stroke-miterlimit="4" stroke="#ffffff" stroke-width="2" stroke-opacity="1"><g><path d="M 10.000061 10L 298.208893 10L 298.208893 213.994995L 10.000061 213.994995L 10.000061 10Z"></path></g></g></g><g id="g-root-cp_4_g-4_zqx9l11wmndvo-fill" data-item-order="-595013" transform="translate(574.206298828125, 400.988037109375)"><defs><linearGradient id="gradient-3b3784-157678356" x2="0" y2="1"><stop offset="0" stop-color="#3c35a8"></stop><stop offset="1" stop-color="#3a3860"></stop></linearGradient><linearGradient id="gradient-53338b-479797644" x2="0" y2="1"><stop offset="0" stop-color="#5f2fb1"></stop><stop offset="1" stop-color="#473664"></stop></linearGradient><linearGradient id="gradient-876dd3-241661493" x2="0" y2="1"><stop offset="0" stop-color="#8c70e0"></stop><stop offset="1" stop-color="#816ac6"></stop></linearGradient><linearGradient id="gradient-9c64d4-251293675" x2="0" y2="1"><stop offset="0" stop-color="#a568e2"></stop><stop offset="1" stop-color="#9360c5"></stop></linearGradient></defs><g id="cp_4_g-4_zqx9l11wmndvo-fill-merged" stroke="none" fill="url(#gradient-9c64d4-251293675)" fill-opacity="1"><g><path d="M10 10 H297.791 V213.995 H10 V10"></path></g></g></g><g id="g-root-cp_4_g-4_zqx9l11wmndvo-stroke" data-item-order="-595013" transform="translate(574.206298828125, 400.988037109375)"><g id="cp_4_g-4_zqx9l11wmndvo-stroke" fill="none" stroke-linecap="round" stroke-linejoin="round" stroke-miterlimit="4" stroke="#ffffff" stroke-width="2" stroke-opacity="1"><g><path d="M 9.999939 10L 297.791077 10L 297.791077 213.994995L 9.999939 213.994995L 9.999939 10Z"></path></g></g></g><g id="g-root-sy_0_line_1_qvwqf91wmnbil-fill" data-item-order="-594998" transform="translate(574.102294921875, 400.988037109375)"></g><g id="g-root-sy_0_line_1_qvwqf91wmnbil-stroke" data-item-order="-594998" transform="translate(574.102294921875, 400.988037109375)"><g id="sy_0_line_1_qvwqf91wmnbil-stroke" fill="none" stroke-linecap="round" stroke-linejoin="round" stroke-miterlimit="4" stroke="#ffffff" stroke-width="2" stroke-opacity="1"><style>.fillAsStrokeColor-mk-dl31mu1wwhatr { fill:#ffffff; }</style><g><path d="M 10 234.01C 10 115.99 10 131.01 10 10"></path><path d="M 10 236L 6 229L 14 229Z" stroke-dasharray="none" class="fillAsStrokeColor-mk-dl31mu1wwhatr" fill="#ffffff"></path></g></g></g><g id="g-root-sy_0_line_2_mg38at1wmncau-fill" data-item-order="-594984" transform="translate(262.102294921875, 400.988037109375)"></g><g id="g-root-sy_0_line_2_mg38at1wmncau-stroke" data-item-order="-594984" transform="translate(262.102294921875, 400.988037109375)"><g id="sy_0_line_2_mg38at1wmncau-stroke" fill="none" stroke-linecap="round" stroke-linejoin="round" stroke-miterlimit="4" stroke="#ffffff" stroke-width="2" stroke-opacity="1"><style>.fillAsStrokeColor-mk-4mb55h1xghyq7 { fill:#ffffff; }</style><g><path d="M 14.01 10C 181.34 10 465.6 10 631.99 10"></path><path d="M 12 10L 19 6L 19 14Z" stroke-dasharray="none" class="fillAsStrokeColor-mk-4mb55h1xghyq7" fill="#ffffff"></path><path d="M 626 16.5L 632.5 10L 626 3.5" stroke-dasharray="none"></path></g></g></g><g id="g-root-tx_nivelora_1qa3iyt1wmdix3-fill" data-item-order="0" transform="translate(366.51373291015625, 257)"><g id="tx_nivelora_1qa3iyt1wmdix3-fill-merged" stroke="none" fill="#ffffff" fill-opacity="1"><g><text style="font: bold 20px &quot;DM Sans Regular&quot;, sans-serif; white-space: pre;" transform="translate(73.58856201171875, 22)" font-weight="bold" font-size="20px" font-family="'DM Sans Regular', sans-serif"><tspan x="-61.59" y="12.44" dominant-baseline="ideographic">Nivel Oración</tspan></text></g></g></g><g id="g-root-tx_nivelora_1qa3iyt1wmdix3-stroke" data-item-order="0" transform="translate(366.51373291015625, 257)"></g><g id="g-root-tx_optimiza_znszb91wmewb2-fill" data-item-order="0" transform="translate(666.5537109375, 257)"><g id="tx_optimiza_znszb91wmewb2-fill-merged" stroke="none" fill="#ffffff" fill-opacity="1"><g><text style="font: bold 20px &quot;DM Sans Regular&quot;, sans-serif; white-space: pre;" transform="translate(61.548583984375, 33.99652099609375)" font-weight="bold" font-size="20px" font-family="'DM Sans Regular', sans-serif"><tspan x="-43.16" y="0.45" dominant-baseline="ideographic">Chunking </tspan><tspan x="-49.55" y="24.44" dominant-baseline="ideographic">Semántico</tspan></text></g></g></g><g id="g-root-tx_optimiza_znszb91wmewb2-stroke" data-item-order="0" transform="translate(666.5537109375, 257)"></g><g id="g-root-tx_divisinl_1qf3bnp1wmdibt-fill" data-item-order="0" transform="translate(310.4285888671875, 292.99993896484375)"><g id="tx_divisinl_1qf3bnp1wmdibt-fill-merged" stroke="none" fill="#ffffff" fill-opacity="1"><g><text style="font: bold 15px &quot;DM Sans Regular&quot;, sans-serif; white-space: pre;" transform="translate(129.673583984375, 39.99749755859375)" font-weight="bold" font-size="15px" font-family="'DM Sans Regular', sans-serif"><tspan x="-90.57" y="-11.11" dominant-baseline="ideographic">Cortes basados en límites </tspan><tspan x="-117.67" y="8.89" dominant-baseline="ideographic">gramaticales usando analizadores </tspan><tspan x="-67.69" y="28.89" dominant-baseline="ideographic">de lenguaje natural.</tspan></text></g></g></g><g id="g-root-tx_divisinl_1qf3bnp1wmdibt-stroke" data-item-order="0" transform="translate(310.4285888671875, 292.99993896484375)"></g><g id="g-root-ic_sett_4005h1wmeyv7-fill" data-item-order="0" transform="translate(694.102294921875, 197)"></g><g id="g-root-ic_sett_4005h1wmeyv7-stroke" data-item-order="0" transform="translate(694.102294921875, 197)"><g id="ic_sett_4005h1wmeyv7-stroke" fill="none" stroke-linecap="round" stroke-linejoin="round" stroke-miterlimit="4" stroke="#ffffff" stroke-width="2" stroke-opacity="1"><g><path d="M 51.133598 17.62278C 54.152802 17.62278 56.600399 16.252159 56.600399 14.56142C 56.600399 12.87066 54.152802 11.500046 51.133598 11.500046C 48.114399 11.500046 45.666801 12.87066 45.666801 14.56142C 45.666801 16.252159 48.114399 17.62278 51.133598 17.62278ZM 45.666801 14.5612L 45.666801 22.87064C 45.666801 24.61998 48.072201 25.931999 51.133598 25.931999C 54.195 25.931999 56.600399 24.61998 56.600399 22.87064L 56.600399 14.5612M 34.109398 17.62278C 37.128601 17.62278 39.576202 16.252159 39.576202 14.56142C 39.576202 12.87066 37.128601 11.500046 34.109398 11.500046C 31.0902 11.500046 28.6427 12.87066 28.6427 14.56142C 28.6427 16.252159 31.0902 17.62278 34.109398 17.62278ZM 28.6427 14.5612L 28.6427 22.87064C 28.6427 24.61998 31.048 25.931999 34.109398 25.931999C 37.170799 25.931999 39.576202 24.61998 39.576202 22.87064L 39.576202 14.5612M 16.866381 17.62278C 19.88558 17.62278 22.33312 16.252159 22.33312 14.56142C 22.33312 12.87066 19.88558 11.500046 16.866381 11.500046C 13.8472 11.500046 11.399658 12.87066 11.399658 14.56142C 11.399658 16.252159 13.8472 17.62278 16.866381 17.62278ZM 22.33312 18.764641C 22.33312 20.4554 19.88558 21.826019 16.866381 21.826019C 13.8472 21.826019 11.399658 20.4554 11.399658 18.764641M 39.576202 18.764641C 39.576202 20.4554 37.128601 21.826019 34.109398 21.826019C 31.0902 21.826019 28.6427 20.4554 28.6427 18.764641M 56.600399 18.764641C 56.600399 20.4554 54.152802 21.826019 51.133598 21.826019C 48.114399 21.826019 45.666801 20.4554 45.666801 18.764641M 11.399658 14.5612L 11.399658 22.87064C 11.399658 24.61998 13.80502 25.931999 16.866381 25.931999C 19.927761 25.931999 22.33312 24.61998 22.33312 22.87064L 22.33312 14.5612M 11.5 56.5C 14.48672 56.5 17.473461 56.5 20.46018 53.5C 23.446899 56.5 26.43362 56.5 27.23008 56.5C 28.026541 56.5 31.013201 56.5 34 53.5C 36.986801 56.5 39.9734 56.5 40.77 56.5C 41.566399 56.5 44.553001 56.5 47.539799 53.5C 50.5266 56.5 53.513199 56.5 56.5 56.5M 25.100079 51.155998C 25.100079 50.556 24.90008 50.155998 24.50008 49.756001L 23.50008 48.756001C 22.90008 48.155998 22.700081 47.355999 23.100079 46.556C 23.50008 45.756001 24.100079 45.355999 25.100079 45.355999L 26.50008 45.355999C 27.10008 45.355999 27.500059 45.155998 27.900061 44.756001C 28.30006 44.355999 28.50008 43.756001 28.50008 43.355999L 28.50008 41.956001C 28.50008 41.155998 28.900061 40.356003 29.70006 39.956001C 30.5 39.556 31.299999 39.756001 31.9 40.356003L 32.900002 41.356003C 33.299999 41.756001 33.700001 41.956001 34.299999 41.956001C 34.900002 41.956001 35.299999 41.756001 35.700001 41.356003L 36.700001 40.356003C 37.299999 39.756001 38.099998 39.556 38.900002 39.956001C 39.700001 40.356003 40.099998 40.956001 40.099998 41.956001L 40.099998 43.355999C 40.099998 43.956001 40.299999 44.355999 40.700001 44.756001C 41.099998 45.155998 41.700001 45.355999 42.099998 45.355999L 43.5 45.355999C 44.299999 45.355999 45.099998 45.756001 45.5 46.556C 45.900002 47.355999 45.700001 48.155998 45.099998 48.756001L 43.700001 49.756001C 43.299999 50.155998 43.099998 50.556 43.099998 51.155998M 30.299999 51.1562C 30.299999 49.1562 31.9 47.356201 34.099998 47.356201C 36.099998 47.356201 37.900002 48.9562 37.900002 51.1562M 10 10M 46.099998 39.747803L 51.099998 35.747803L 51.099998 30.747801M 10 10M 22.1001 39.747803L 17.1001 35.747803L 17.1001 30.747801M 34 36.425201L 34 29.7479"></path></g></g></g><g id="g-root-tx_ajustedi_1uo1ltx1wmgao9-fill" data-item-order="0" transform="translate(604.2880859375, 316.9930419921875)"><g id="tx_ajustedi_1uo1ltx1wmgao9-fill-merged" stroke="none" fill="#ffffff" fill-opacity="1"><g><text style="font: bold 15px &quot;DM Sans Regular&quot;, sans-serif; white-space: pre;" transform="translate(123.814208984375, 39.99749755859375)" font-weight="bold" font-size="15px" font-family="'DM Sans Regular', sans-serif"><tspan x="-79.66" y="-11.11" dominant-baseline="ideographic">Divisiones adaptativas </tspan><tspan x="-111.81" y="8.89" dominant-baseline="ideographic">calculadas según la similitud de </tspan><tspan x="-103.34" y="28.89" dominant-baseline="ideographic">embeddings entre oraciones.</tspan></text></g></g></g><g id="g-root-tx_ajustedi_1uo1ltx1wmgao9-stroke" data-item-order="0" transform="translate(604.2880859375, 316.9930419921875)"></g><g id="g-root-tx_esttico_4mxvph1wmhq14-fill" data-item-order="0" transform="translate(201.96337890625, 393.78802490234375)"><g id="tx_esttico_4mxvph1wmhq14-fill-merged" stroke="none" fill="#ffffff" fill-opacity="1"><g><text style="font: 12px &quot;DM Sans Regular&quot;, sans-serif; white-space: pre;" transform="translate(59.138916015625, 17.20001220703125)" font-size="12px" font-family="'DM Sans Regular', sans-serif"><tspan x="-47.14" y="7.24" dominant-baseline="ideographic">Estático</tspan></text></g></g></g><g id="g-root-tx_esttico_4mxvph1wmhq14-stroke" data-item-order="0" transform="translate(201.96337890625, 393.78802490234375)"></g><g id="g-root-tx_simple_4hy30l1wmhqmd-fill" data-item-order="0" transform="translate(553.3441162109375, 640.9830322265625)"><g id="tx_simple_4hy30l1wmhqmd-fill-merged" stroke="none" fill="#ffffff" fill-opacity="1"><g><text style="font: 12px &quot;DM Sans Regular&quot;, sans-serif; white-space: pre;" transform="translate(30.7586669921875, 17.20001220703125)" font-size="12px" font-family="'DM Sans Regular', sans-serif"><tspan x="-18.76" y="7.24" dominant-baseline="ideographic">Simple</tspan></text></g></g></g><g id="g-root-tx_simple_4hy30l1wmhqmd-stroke" data-item-order="0" transform="translate(553.3441162109375, 640.9830322265625)"></g><g id="g-root-ic_1_1umsnnp1wmdhqb-fill" data-item-order="0" transform="translate(406.102294921875, 197)"></g><g id="g-root-ic_1_1umsnnp1wmdhqb-stroke" data-item-order="0" transform="translate(406.102294921875, 197)"><g id="ic_1_1umsnnp1wmdhqb-stroke" fill="none" stroke-linecap="round" stroke-linejoin="round" stroke-miterlimit="4" stroke="#ffffff" stroke-width="2" stroke-opacity="1"><g><path d="M 26.6001 44.198002L 26.6001 12.37378M 41.400002 44.198002L 41.400002 12.37378M 41.400002 53.382801C 40.839199 53.382801 40.2784 53.9436 40.2784 54.504601C 40.2784 55.065399 40.839199 55.6264 41.400002 55.6264M 41.4002 53.382801C 41.960999 53.382801 42.521999 53.9436 42.521999 54.504601C 42.521999 55.065399 41.960999 55.6264 41.4002 55.6264M 26.5998 53.382801C 26.038919 53.382801 25.47802 53.9436 25.47802 54.504601C 25.47802 55.065399 26.038919 55.6264 26.5998 55.6264M 26.59992 53.382801C 27.16078 53.382801 27.72168 53.9436 27.72168 54.504601C 27.72168 55.065399 27.16078 55.6264 26.59992 55.6264"></path></g></g></g><g id="g-root-tx_complejo_v6qj0l1wmc45c-fill" data-item-order="0" transform="translate(545.3922119140625, 122.5999755859375)"><g id="tx_complejo_v6qj0l1wmc45c-fill-merged" stroke="none" fill="#ffffff" fill-opacity="1"><g><text style="font: 12px &quot;DM Sans Regular&quot;, sans-serif; white-space: pre;" transform="translate(38.7100830078125, 17.20001220703125)" font-size="12px" font-family="'DM Sans Regular', sans-serif"><tspan x="-26.71" y="7.24" dominant-baseline="ideographic">Complejo</tspan></text></g></g></g><g id="g-root-tx_complejo_v6qj0l1wmc45c-stroke" data-item-order="0" transform="translate(545.3922119140625, 122.5999755859375)"></g><g id="g-root-tx_optimiza_mg38at1wmncav-fill" data-item-order="0" transform="translate(400.149169921875, 59)"><g id="tx_optimiza_mg38at1wmncav-fill-merged" stroke="none" fill="#ffffff" fill-opacity="1"><g><text style="font: bold 25px &quot;DM Sans Regular&quot;, sans-serif; white-space: pre;" transform="translate(183.953125, 25)" font-weight="bold" font-size="25px" font-family="'DM Sans Regular', sans-serif"><tspan x="-171.95" y="16.11" dominant-baseline="ideographic">Matriz de Fragmentación RAG</tspan></text></g></g></g><g id="g-root-tx_optimiza_mg38at1wmncav-stroke" data-item-order="0" transform="translate(400.149169921875, 59)"></g><g id="g-root-tx_dinmico_dcym6d1wmj6de-fill" data-item-order="0" transform="translate(898.102294921875, 393.78802490234375)"><g id="tx_dinmico_dcym6d1wmj6de-fill-merged" stroke="none" fill="#ffffff" fill-opacity="1"><g><text style="font: 12px &quot;DM Sans Regular&quot;, sans-serif; white-space: pre;" transform="translate(10, 17.20001220703125)" font-size="12px" font-family="'DM Sans Regular', sans-serif"><tspan x="2" y="7.24" dominant-baseline="ideographic">Dinámico</tspan></text></g></g></g><g id="g-root-tx_dinmico_dcym6d1wmj6de-stroke" data-item-order="0" transform="translate(898.102294921875, 393.78802490234375)"></g><g id="g-root-ic_1_1hbc24l1wmor9c-fill" data-item-order="0" transform="translate(406.102294921875, 424.988037109375)"></g><g id="g-root-ic_1_1hbc24l1wmor9c-stroke" data-item-order="0" transform="translate(406.102294921875, 424.988037109375)"><g id="ic_1_1hbc24l1wmor9c-stroke" fill="none" stroke-linecap="round" stroke-linejoin="round" stroke-miterlimit="4" stroke="#ffffff" stroke-width="2" stroke-opacity="1"><g><path d="M 13.007999 13L 29.007999 13C 29.007999 13 30.007999 13 30.007999 14L 30.007999 18C 30.007999 18 30.007999 19 29.007999 19L 13.007999 19C 13.007999 19 12.007999 19 12.007999 18L 12.007999 14C 12.007999 14 12.007999 13 13.007999 13M 17.007999 19L 33.007999 19C 33.007999 19 34.007999 19 34.007999 20L 34.007999 24C 34.007999 24 34.007999 25 33.007999 25L 17.007999 25C 17.007999 25 16.007999 25 16.007999 24L 16.007999 20C 16.007999 20 16.007999 19 17.007999 19M 15.007999 25L 31.007999 25C 31.007999 25 32.007999 25 32.007999 26L 32.007999 30C 32.007999 30 32.007999 31 31.007999 31L 15.007999 31C 15.007999 31 14.007999 31 14.007999 30L 14.007999 26C 14.007999 26 14.007999 25 15.007999 25M 13.007999 31L 29.007999 31C 29.007999 31 30.007999 31 30.007999 32L 30.007999 36C 30.007999 36 30.007999 37 29.007999 37L 13.007999 37C 13.007999 37 12.007999 37 12.007999 36L 12.007999 32C 12.007999 32 12.007999 31 13.007999 31M 15.007999 37L 31.007999 37C 31.007999 37 32.007999 37 32.007999 38L 32.007999 42C 32.007999 42 32.007999 43 31.007999 43L 15.007999 43C 15.007999 43 14.007999 43 14.007999 42L 14.007999 38C 14.007999 38 14.007999 37 15.007999 37M 13.007999 43L 29.007999 43C 29.007999 43 30.007999 43 30.007999 44L 30.007999 48C 30.007999 48 30.007999 49 29.007999 49L 13.007999 49C 13.007999 49 12.007999 49 12.007999 48L 12.007999 44C 12.007999 44 12.007999 43 13.007999 43M 15.007999 49L 31.007999 49C 31.007999 49 32.007999 49 32.007999 50L 32.007999 54C 32.007999 54 32.007999 55 31.007999 55L 15.007999 55C 15.007999 55 14.007999 55 14.007999 54L 14.007999 50C 14.007999 50 14.007999 49 15.007999 49M 37.007999 37L 53.007999 37C 53.007999 37 54.007999 37 54.007999 38L 54.007999 42C 54.007999 42 54.007999 43 53.007999 43L 37.007999 43C 37.007999 43 36.007999 43 36.007999 42L 36.007999 38C 36.007999 38 36.007999 37 37.007999 37M 39.007999 43L 55.007999 43C 55.007999 43 56.007999 43 56.007999 44L 56.007999 48C 56.007999 48 56.007999 49 55.007999 49L 39.007999 49C 39.007999 49 38.007999 49 38.007999 48L 38.007999 44C 38.007999 44 38.007999 43 39.007999 43M 37.007999 49L 53.007999 49C 53.007999 49 54.007999 49 54.007999 50L 54.007999 54C 54.007999 54 54.007999 55 53.007999 55L 37.007999 55C 37.007999 55 36.007999 55 36.007999 54L 36.007999 50C 36.007999 50 36.007999 49 37.007999 49"></path></g></g></g><g id="g-root-ic_hori_zlazt11wmvric-fill" data-item-order="0" transform="translate(694.102294921875, 424.988037109375)"></g><g id="g-root-ic_hori_zlazt11wmvric-stroke" data-item-order="0" transform="translate(694.102294921875, 424.988037109375)"><g id="ic_hori_zlazt11wmvric-stroke" fill="none" stroke-linecap="round" stroke-linejoin="round" stroke-miterlimit="4" stroke="#ffffff" stroke-width="2" stroke-opacity="1"><g><path d="M 55 19C 56.104568 19 57 19.895432 57 21L 57 47C 57 48.104568 56.104568 49 55 49M 50 37L 53 34L 50 31M 13 49C 11.895431 49 11 48.104568 11 47L 11 21C 11 19.895432 11.895431 19 13 19M 18 31L 15 34L 18 37M 43 49L 25 49C 25 49 23 49 23 47L 23 21C 23 21 23 19 25 19L 43 19C 43 19 45 19 45 21L 45 47C 45 47 45 49 43 49"></path></g></g></g><g id="g-root-tx_tokensfi_18lxsqt1wmsykt-fill" data-item-order="0" transform="translate(372.5467529296875, 484.988037109375)"><g id="tx_tokensfi_18lxsqt1wmsykt-fill-merged" stroke="none" fill="#ffffff" fill-opacity="1"><g><text style="font: bold 20px &quot;DM Sans Regular&quot;, sans-serif; white-space: pre;" transform="translate(67.5555419921875, 22)" font-weight="bold" font-size="20px" font-family="'DM Sans Regular', sans-serif"><tspan x="-55.56" y="12.44" dominant-baseline="ideographic">Tokens Fijos</tspan></text></g></g></g><g id="g-root-tx_tokensfi_18lxsqt1wmsykt-stroke" data-item-order="0" transform="translate(372.5467529296875, 484.988037109375)"></g><g id="g-root-tx_ventanad_1qduabp1wmvt36-fill" data-item-order="0" transform="translate(628.011962890625, 484.988037109375)"><g id="tx_ventanad_1qduabp1wmvt36-fill-merged" stroke="none" fill="#ffffff" fill-opacity="1"><g><text style="font: bold 20px &quot;DM Sans Regular&quot;, sans-serif; white-space: pre;" transform="translate(100.09033203125, 22)" font-weight="bold" font-size="20px" font-family="'DM Sans Regular', sans-serif"><tspan x="-88.09" y="12.44" dominant-baseline="ideographic">Ventana Deslizante</tspan></text></g></g></g><g id="g-root-tx_ventanad_1qduabp1wmvt36-stroke" data-item-order="0" transform="translate(628.011962890625, 484.988037109375)"></g><g id="g-root-tx_segmenta_qpnzk51wmuex4-fill" data-item-order="0" transform="translate(319.83837890625, 520.988037109375)"><g id="tx_segmenta_qpnzk51wmuex4-fill-merged" stroke="none" fill="#ffffff" fill-opacity="1"><g><text style="font: bold 15px &quot;DM Sans Regular&quot;, sans-serif; white-space: pre;" transform="translate(120.263916015625, 39.99749755859375)" font-weight="bold" font-size="15px" font-family="'DM Sans Regular', sans-serif"><tspan x="-96.13" y="-11.11" dominant-baseline="ideographic">División rígida basada en el </tspan><tspan x="-108.26" y="8.89" dominant-baseline="ideographic">conteo de caracteres o tokens </tspan><tspan x="-91.44" y="28.89" dominant-baseline="ideographic">sin importar la estructura.</tspan></text></g></g></g><g id="g-root-tx_segmenta_qpnzk51wmuex4-stroke" data-item-order="0" transform="translate(319.83837890625, 520.988037109375)"></g><g id="g-root-tx_fragment_zmjxz91wmx72c-fill" data-item-order="0" transform="translate(602.786376953125, 520.988037109375)"><g id="tx_fragment_zmjxz91wmx72c-fill-merged" stroke="none" fill="#ffffff" fill-opacity="1"><g><text style="font: bold 15px &quot;DM Sans Regular&quot;, sans-serif; white-space: pre;" transform="translate(125.31591796875, 39.99749755859375)" font-weight="bold" font-size="15px" font-family="'DM Sans Regular', sans-serif"><tspan x="-113.32" y="-11.11" dominant-baseline="ideographic">Bloques de tamaño definido con </tspan><tspan x="-108.82" y="8.89" dominant-baseline="ideographic">solapamiento para mantener el </tspan><tspan x="-95.42" y="28.89" dominant-baseline="ideographic">contexto entre fragmentos.</tspan></text></g></g></g><g id="g-root-tx_fragment_zmjxz91wmx72c-stroke" data-item-order="0" transform="translate(602.786376953125, 520.988037109375)"></g></g></g></svg>