<?xml version="1.0" encoding="utf-8" standalone="yes"?>
<!DOCTYPE svg PUBLIC "-//W3C//DTD SVG 1.1//EN" "http://www.w3.org/Graphics/SVG/1.1/DTD/svg11.dtd">
<svg style="fill:none;stroke:none;fill-rule:evenodd;clip-rule:evenodd;stroke-linecap:round;stroke-linejoin:round;stroke-miterlimit:1.5;" version="1.1" xmlns="http://www.w3.org/2000/svg" xmlns:xlink="http://www.w3.org/1999/xlink" width="864" height="486" viewBox="0 0 864 486"><style class="text-font-style fontImports" data-font-family="DM Sans">@font-face {font-family: 'DM Sans Regular';src: url(https://fonts.napkin.ai/google-fonts/20250207/dm-sans/dm-sans_regular.ttf) format("truetype");font-weight: normal;font-style: normal;}</style><g id="items" style="isolation: isolate"><g id="blend" style="mix-blend-mode: normal"><g id="g-root-cp_0-connector_g-0-connector_qpolom1w2fs3y-fill" data-item-order="-315889" transform="translate(314, 272)"></g><g id="g-root-cp_0-connector_g-0-connector_qpolom1w2fs3y-stroke" data-item-order="-315889" transform="translate(314, 272)"><g id="cp_0-connector_g-0-connector_qpolom1w2fs3y-stroke" fill="none" stroke-linecap="round" stroke-linejoin="round" stroke-miterlimit="4" stroke="#1a1a1a" stroke-width="2" stroke-opacity="1"><g><path d="M 112 10L 112 58M 112 58L 214 58L 214 82M 112 58L 10 58L 10 82"></path></g></g></g><g id="g-root-cp_0-circle_g-0-circle_mahkna1w2fpqf-fill" data-item-order="-315886" transform="translate(332, 104)"><g id="cp_0-circle_g-0-circle_mahkna1w2fpqf-fill-merged" stroke="none" fill="url(#gradient-fdd2ce-383511069)" fill-opacity="1"><g><path d="M178 94C178 140.392 140.392 178 94 178C47.608 178 10 140.392 10 94C10 47.608 47.608 10 94 10C140.392 10 178 47.608 178 94"></path></g></g></g><g id="g-root-cp_0-circle_g-0-circle_mahkna1w2fpqf-stroke" data-item-order="-315886" transform="translate(332, 104)"><g id="cp_0-circle_g-0-circle_mahkna1w2fpqf-stroke" fill="none" stroke-linecap="round" stroke-linejoin="round" stroke-miterlimit="4" stroke="#1a1a1a" stroke-width="2" stroke-opacity="1"><g><path d="M 178 94C 178 140.3919 140.3919 178 94 178C 47.6081 178 10 140.3919 10 94C 10 47.6081 47.6081 10 94 10C 140.3919 10 178 47.6081 178 94Z"></path></g></g></g><g id="g-root-sy_1_cu_vector_huo2iu1w2fqio-fill" data-item-order="-315878" transform="translate(536, 152)"><g id="sy_1_cu_vector_huo2iu1w2fqio-fill-merged" stroke="none" fill="url(#gradient-af6c95-335784158)" fill-opacity="1"><g><path d="M10 20C10 14.477 14.477 10 20 10 H72C77.523 10 82 14.477 82 20 V72C82 77.523 77.523 82 72 82 H20C14.477 82 10 77.523 10 72 V20"></path></g></g></g><g id="g-root-sy_1_cu_vector_huo2iu1w2fqio-stroke" data-item-order="-315878" transform="translate(536, 152)"><g id="sy_1_cu_vector_huo2iu1w2fqio-stroke" fill="none" stroke-linecap="round" stroke-linejoin="round" stroke-miterlimit="4" stroke="#1a1a1a" stroke-width="2" stroke-opacity="1"><g><path d="M 10 20C 10 14.4772 14.4772 10 20 10L 72 10C 77.5228 10 82 14.4772 82 20L 82 72C 82 77.5228 77.5228 82 72 82L 20 82C 14.4772 82 10 77.5228 10 72L 10 20Z"></path></g></g></g><g id="g-root-sy_1_cu_vector_1_huo2iu1w2fqip-fill" data-item-order="-315876" transform="translate(224, 152)"><defs><linearGradient id="gradient-fdd2ce-383511069" x2="0" y2="1"><stop offset="0" stop-color="#ffe4e1"></stop><stop offset="1" stop-color="#fabfba"></stop></linearGradient><linearGradient id="gradient-af6c95-335784158" x2="0" y2="1"><stop offset="0" stop-color="#be76a2"></stop><stop offset="1" stop-color="#9f6187"></stop></linearGradient></defs><g id="sy_1_cu_vector_1_huo2iu1w2fqip-fill-merged" stroke="none" fill="url(#gradient-af6c95-335784158)" fill-opacity="1"><g><path d="M10 20C10 14.477 14.477 10 20 10 H72C77.523 10 82 14.477 82 20 V72C82 77.523 77.523 82 72 82 H20C14.477 82 10 77.523 10 72 V20"></path></g></g></g><g id="g-root-sy_1_cu_vector_1_huo2iu1w2fqip-stroke" data-item-order="-315876" transform="translate(224, 152)"><g id="sy_1_cu_vector_1_huo2iu1w2fqip-stroke" fill="none" stroke-linecap="round" stroke-linejoin="round" stroke-miterlimit="4" stroke="#1a1a1a" stroke-width="2" stroke-opacity="1"><g><path d="M 10 20C 10 14.4772 14.4772 10 20 10L 72 10C 77.5228 10 82 14.4772 82 20L 82 72C 82 77.5228 77.5228 82 72 82L 20 82C 14.4772 82 10 77.5228 10 72L 10 20Z"></path></g></g></g><g id="g-root-tx_mejorade_8z129y1w2frbe-fill" data-item-order="0" transform="translate(146.3984375, 38)"><g id="tx_mejorade_8z129y1w2frbe-fill-merged" stroke="none" fill="#1a1a1a" fill-opacity="1"><g><text style="font: bold 25px &quot;DM Sans Regular&quot;, sans-serif; white-space: pre;" transform="translate(282.6015625, 25)" font-weight="bold" font-size="25px" font-family="'DM Sans Regular', sans-serif"><tspan x="-270.6" y="16" dominant-baseline="ideographic">Mejora de la Búsqueda Vectorial con Reranking</tspan></text></g></g></g><g id="g-root-tx_mejorade_8z129y1w2frbe-stroke" data-item-order="0" transform="translate(146.3984375, 38)"></g><g id="g-root-ic_2_v5i3t21w2r0ge-fill" data-item-order="0" transform="translate(236, 164)"></g><g id="g-root-ic_2_v5i3t21w2r0ge-stroke" data-item-order="0" transform="translate(236, 164)"><g id="ic_2_v5i3t21w2r0ge-stroke" fill="none" stroke-linecap="round" stroke-linejoin="round" stroke-miterlimit="4" stroke="#1a1a1a" stroke-width="2" stroke-opacity="1"><g><path d="M 34.499802 42.299999C 43.005001 42.299999 49.899799 35.405197 49.899799 26.9C 49.899799 18.3948 43.005001 11.5 34.499802 11.5C 25.994659 11.5 19.099861 18.3948 19.099861 26.9C 19.099861 35.405197 25.994659 42.299999 34.499802 42.299999ZM 10 10M 56.499802 48.900398L 45.299801 37.900398M 15.5 17.5C 13.3 17.5 11.5 19.299999 11.5 21.5L 11.5 52.5C 11.5 54.700001 13.3 56.5 15.5 56.5L 35.5 56.5C 37.700001 56.5 39.5 54.700001 39.5 52.5L 39.5 47.5M 30.5 17.5L 35.5 17.5C 37.700001 17.5 39.5 19.299999 39.5 21.5L 39.5 34.5M 25.099861 29.5L 32.0998 29.5M 26.099859 23.5L 32.0998 23.5M 30.0998 35.5L 32.0998 35.5"></path></g></g></g><g id="g-root-ic_cent_dg3ikm1w2h632-fill" data-item-order="0" transform="translate(548, 164)"></g><g id="g-root-ic_cent_dg3ikm1w2h632-stroke" data-item-order="0" transform="translate(548, 164)"><g id="ic_cent_dg3ikm1w2h632-stroke" fill="none" stroke-linecap="round" stroke-linejoin="round" stroke-miterlimit="4" stroke="#1a1a1a" stroke-width="2" stroke-opacity="1"><g><path d="M 31 35L 42 24M 43.18 15.82C 42.42392 16.571592 41.999153 17.59391 42 18.66L 42 24L 47.34 24C 48.40609 24.000845 49.428406 23.576078 50.18 22.82L 55 18L 48 18L 48 11ZM 40.52 32C 40.844315 32.99424 41.006386 34.034222 41 35.080002C 41.029373 39.847019 37.689716 43.971992 33.02095 44.935314C 28.35219 45.898632 23.652557 43.43243 21.792673 39.043106C 19.932789 34.653782 21.429832 29.561867 25.369379 26.877598C 29.308926 24.193329 34.595512 24.663115 38 28M 48 29C 50.790287 36.992561 47.634033 45.849342 40.417969 50.275978C 33.201904 54.702614 23.876419 53.502655 18.016064 47.393406C 12.15571 41.284157 11.344446 31.916849 16.067228 24.891037C 20.790009 17.865227 29.770342 15.079875 37.639999 18.200001M 19.779999 49.080002L 13 57M 42.220001 49.080002L 49 57"></path></g></g></g><g id="g-root-tx_recupera_htf4cm1w2y0w0-fill" data-item-order="0" transform="translate(67.390625, 152)"><g id="tx_recupera_htf4cm1w2y0w0-fill-merged" stroke="none" fill="#1a1a1a" fill-opacity="1"><g><text style="font: bold 20px &quot;DM Sans Regular&quot;, sans-serif; white-space: pre;" transform="translate(142.609375, 46)" font-weight="bold" font-size="20px" font-family="'DM Sans Regular', sans-serif"><tspan x="-38.47" y="-11" dominant-baseline="ideographic">Alta </tspan><tspan x="-130.61" y="13" dominant-baseline="ideographic">Exhaustividad </tspan><tspan x="-70.81" y="37" dominant-baseline="ideographic">(Recall)</tspan></text></g></g></g><g id="g-root-tx_recupera_htf4cm1w2y0w0-stroke" data-item-order="0" transform="translate(67.390625, 152)"></g><g id="g-root-tx_implemen_qtfg7a1w2fq4j-fill" data-item-order="0" transform="translate(352.515625, 164)"><g id="tx_implemen_qtfg7a1w2fq4j-fill-merged" stroke="none" fill="#1a1a1a" fill-opacity="1"><g><text style="font: bold 20px &quot;DM Sans Regular&quot;, sans-serif; white-space: pre;" transform="translate(73.484375, 34)" font-weight="bold" font-size="20px" font-family="'DM Sans Regular', sans-serif"><tspan x="-61.48" y="1" dominant-baseline="ideographic">Implementar </tspan><tspan x="-47.63" y="25" dominant-baseline="ideographic">Reranking</tspan></text></g></g></g><g id="g-root-tx_implemen_qtfg7a1w2fq4j-stroke" data-item-order="0" transform="translate(352.515625, 164)"></g><g id="g-root-tx_recupera_1d30v5y1w2frb8-fill" data-item-order="0" transform="translate(632, 152)"><g id="tx_recupera_1d30v5y1w2frb8-fill-merged" stroke="none" fill="#1a1a1a" fill-opacity="1"><g><text style="font: bold 20px &quot;DM Sans Regular&quot;, sans-serif; white-space: pre;" transform="translate(10, 46)" font-weight="bold" font-size="20px" font-family="'DM Sans Regular', sans-serif"><tspan x="2" y="-11" dominant-baseline="ideographic">Alta </tspan><tspan x="2" y="13" dominant-baseline="ideographic">Precisión </tspan><tspan x="2" y="37" dominant-baseline="ideographic">(Precision)</tspan></text></g></g></g><g id="g-root-tx_recupera_1d30v5y1w2frb8-stroke" data-item-order="0" transform="translate(632, 152)"></g><g id="g-root-tx_recupera_v8005i1w2xzpl-fill" data-item-order="0" transform="translate(46.25, 236)"><g id="tx_recupera_v8005i1w2xzpl-fill-merged" stroke="none" fill="#1a1a1a" fill-opacity="1"><g><text style="font: bold 15px &quot;DM Sans Regular&quot;, sans-serif; white-space: pre;" transform="translate(163.75, 46)" font-weight="bold" font-size="15px" font-family="'DM Sans Regular', sans-serif"><tspan x="-141.17" y="-17" dominant-baseline="ideographic">Extrae una cantidad </tspan><tspan x="-151.75" y="1" dominant-baseline="ideographic">amplia de candidatos </tspan><tspan x="-128.05" y="19" dominant-baseline="ideographic">(Top-100) para no </tspan><tspan x="-138.3" y="37" dominant-baseline="ideographic">perder información.</tspan></text></g></g></g><g id="g-root-tx_recupera_v8005i1w2xzpl-stroke" data-item-order="0" transform="translate(46.25, 236)"></g><g id="g-root-tx_entregad_1q7m5l21w2h4p9-fill" data-item-order="0" transform="translate(632, 236)"><g id="tx_entregad_1q7m5l21w2h4p9-fill-merged" stroke="none" fill="#1a1a1a" fill-opacity="1"><g><text style="font: bold 15px &quot;DM Sans Regular&quot;, sans-serif; white-space: pre;" transform="translate(10, 55)" font-weight="bold" font-size="15px" font-family="'DM Sans Regular', sans-serif"><tspan x="2" y="-26" dominant-baseline="ideographic">Selecciona solo los </tspan><tspan x="2" y="-8" dominant-baseline="ideographic">fragmentos más </tspan><tspan x="2" y="10" dominant-baseline="ideographic">relevantes (Top-5) </tspan><tspan x="2" y="28" dominant-baseline="ideographic">para evitar ruido en el </tspan><tspan x="2" y="46" dominant-baseline="ideographic">LLM.</tspan></text></g></g></g><g id="g-root-tx_entregad_1q7m5l21w2h4p9-stroke" data-item-order="0" transform="translate(632, 236)"></g><g id="g-root-tx_bsquedar_1hhlf461w2y0wa-fill" data-item-order="0" transform="translate(246.0546875, 356)"><g id="tx_bsquedar_1hhlf461w2y0wa-fill-merged" stroke="none" fill="#1a1a1a" fill-opacity="1"><g><text style="font: bold 15px &quot;DM Sans Regular&quot;, sans-serif; white-space: pre;" transform="translate(77.9453125, 38)" font-weight="bold" font-size="15px" font-family="'DM Sans Regular', sans-serif"><tspan x="-58.76" y="-9" dominant-baseline="ideographic">Búsqueda rápida </tspan><tspan x="-31.82" y="9" dominant-baseline="ideographic">vectorial </tspan><tspan x="-65.95" y="27" dominant-baseline="ideographic">(Distancia Coseno)</tspan></text></g></g></g><g id="g-root-tx_bsquedar_1hhlf461w2y0wa-stroke" data-item-order="0" transform="translate(246.0546875, 356)"></g><g id="g-root-tx_evaluaci_4gpqyu1w2cwln-fill" data-item-order="0" transform="translate(438.8203125, 356)"><g id="tx_evaluaci_4gpqyu1w2cwln-fill-merged" stroke="none" fill="#1a1a1a" fill-opacity="1"><g><text style="font: bold 15px &quot;DM Sans Regular&quot;, sans-serif; white-space: pre;" transform="translate(89.1796875, 38)" font-weight="bold" font-size="15px" font-family="'DM Sans Regular', sans-serif"><tspan x="-77.18" y="-9" dominant-baseline="ideographic">Evaluación semántica </tspan><tspan x="-16.6" y="9" dominant-baseline="ideographic">fina </tspan><tspan x="-60.15" y="27" dominant-baseline="ideographic">(Cross-Encoder)</tspan></text></g></g></g><g id="g-root-tx_evaluaci_4gpqyu1w2cwln-stroke" data-item-order="0" transform="translate(438.8203125, 356)"></g></g></g></svg>