<?xml version="1.0" encoding="utf-8" standalone="yes"?>
<!DOCTYPE svg PUBLIC "-//W3C//DTD SVG 1.1//EN" "http://www.w3.org/Graphics/SVG/1.1/DTD/svg11.dtd">
<svg style="fill:none;stroke:none;fill-rule:evenodd;clip-rule:evenodd;stroke-linecap:round;stroke-linejoin:round;stroke-miterlimit:1.5;" version="1.1" xmlns="http://www.w3.org/2000/svg" xmlns:xlink="http://www.w3.org/1999/xlink" width="1108" height="623" viewBox="0 0 1108 623"><style class="text-font-style fontImports" data-font-family="DM Sans">@font-face {font-family: 'DM Sans Regular';src: url(https://fonts.napkin.ai/google-fonts/20250207/dm-sans/dm-sans_regular.ttf) format("truetype");font-weight: normal;font-style: normal;}</style><rect id="" x="0" y="0" width="1107.2" height="622.8" style="fill: #0d1425;"></rect><g id="items" style="isolation: isolate"><g id="blend" style="mix-blend-mode: normal"><g id="g-root-cp_1_g-1_18efxag1yk9b7q-fill" data-item-order="-417209" transform="translate(156.666748046875, 116)"><g id="cp_1_g-1_18efxag1yk9b7q-fill-merged" stroke="none" fill="url(#gradient-0a5168-180609415)" fill-opacity="1"><g><path d="M338.819 47C335.835 50.255 334.519 59.7 351.319 58.5C368.119 57.3 380.985 53.667 385.319 52L438.027 99.689C438.174 99.837 438.302 99.969 438.415 100.086C438.639 100.317 438.802 100.486 438.923 100.584L463.435 122.58C468.813 126.959 469.244 134.53 464.398 139.491C459.552 144.452 452.5 144 446.423 140.084L443 138L439.56 135.413L411.889 112.884L440.388 136.163C445.429 140.268 445.809 147.269 441.266 151.92C436.723 156.57 428.542 156.605 423.5 152.5L408.289 139.505L407.489 138.826C404.964 136.533 402.388 134.399 400.101 132.567L392.552 126.436C392.715 126.773 394.16 127.901 396.31 129.58C397.414 130.441 398.703 131.448 400.101 132.567L400.561 132.941L407.489 138.826C415.821 146.395 424 154.5 418.525 161.642C414.3 165.967 407.074 166.378 402.386 162.561L387.807 150.663L397.269 158.493C401.958 162.31 401.75 168.92 397.525 173.245C393.3 177.57 386.074 177.981 381.386 174.163L366.019 161.653C366.874 158.095 365.864 154.191 363.025 151.485C359.757 148.369 355.019 147.749 351.167 149.569C350.868 149.347 350.539 149.136 350.185 148.931C352.23 144.868 351.487 139.786 348.025 136.485C343.912 132.563 337.472 132.595 333.398 136.469C337.425 132.227 337.26 125.523 333.025 121.485C328.784 117.441 322.068 117.601 318.024 121.842L314.41 125.633 H314.332L318.495 121.215C322.538 116.974 322.378 110.258 318.137 106.214C313.896 102.171 307.18 102.33 303.137 106.571L296.605 113.422L286 106 V34L343.784 42.64C342.176 43.724 340.547 45.115 338.819 47 M370.888 136.663L387.807 150.663L372.559 138.078C372.315 137.847 372.043 137.633 371.773 137.419C371.463 137.174 371.155 136.93 370.888 136.663"></path></g></g><g id="cp_1_g-1_18efxag1yk9b7q-fill-merged" stroke="none" fill="url(#gradient-0a5168-180609415)" fill-opacity="1"><g><path d="M10 10 H250 V154.006 H10 V10"></path></g></g></g><g id="g-root-cp_1_g-1_18efxag1yk9b7q-stroke" data-item-order="-417209" transform="translate(156.666748046875, 116)"><g id="cp_1_g-1_18efxag1yk9b7q-stroke" fill="none" stroke-linecap="round" stroke-linejoin="round" stroke-miterlimit="4" stroke="#ffffff" stroke-width="2" stroke-opacity="1"><g><path d="M 338.819 47C 335.8351 50.255 334.5189 59.7 351.3188 58.5C 368.1189 57.3 380.9854 53.6667 385.3187 52L 438.0272 99.6886C 438.1738 99.8366 438.3022 99.9692 438.4149 100.0856C 438.6395 100.3175 438.8023 100.4856 438.9231 100.584L 463.435 122.5801C 468.8131 126.9587 469.2442 134.5299 464.3979 139.4907C 459.5516 144.4515 452.5 144 446.4231 140.084L 443 138L 439.5599 135.4132L 411.889 112.8844L 440.3877 136.1631C 445.4292 140.2677 445.8091 147.2694 441.2661 151.9197C 436.7232 156.5701 428.5415 156.6046 423.5 152.5L 408.2887 139.5054L 407.4888 138.8258C 404.9641 136.5325 402.3877 134.3988 400.1006 132.567L 392.5525 126.4362C 392.7154 126.7732 394.1601 127.901 396.3105 129.5798C 397.4139 130.4411 398.7035 131.4479 400.1006 132.567L 400.5614 132.9413L 407.4888 138.8258C 415.8213 146.395 424 154.5 418.5254 161.642C 414.3003 165.9669 407.0743 166.3784 402.3856 162.561L 387.8068 150.6631L 397.2694 158.493C 401.9581 162.3104 401.7504 168.9196 397.5254 173.2446C 393.3003 177.5695 386.0743 177.9809 381.3856 174.1635L 366.0191 161.6526C 366.8739 158.0951 365.8636 154.1913 363.025 151.4848C 359.7569 148.3686 355.0188 147.7488 351.1667 149.5692C 350.8677 149.3469 350.5385 149.1357 350.1851 148.931C 352.2296 144.8684 351.4873 139.786 348.025 136.4848C 343.9122 132.5633 337.4716 132.5952 333.3981 136.4687C 337.4254 132.2269 337.2604 125.5232 333.025 121.4848C 328.7841 117.4411 322.068 117.601 318.0244 121.8419L 314.4097 125.6329L 314.3325 125.5799L 318.4945 121.2149C 322.5382 116.974 322.3783 110.258 318.1373 106.2143C 313.8964 102.1706 307.1803 102.3305 303.1367 106.5714L 296.6046 113.4222L 286 106L 286 34L 343.7835 42.64C 342.1757 43.7239 340.5467 45.1153 338.819 47ZM 370.8877 136.6631L 387.8068 150.6631L 372.5592 138.078C 372.3145 137.8474 372.0434 137.6329 371.773 137.4191C 371.4633 137.1742 371.1546 136.93 370.8877 136.6631Z"></path></g></g><g id="cp_1_g-1_18efxag1yk9b7q-stroke" fill="none" stroke-linecap="round" stroke-linejoin="round" stroke-miterlimit="4" stroke="#ffffff" stroke-width="2" stroke-opacity="1"><g><path d="M 10 10L 250 10L 250 154.005951L 10 154.005951L 10 10Z"></path></g></g></g><g id="g-root-cp_0_g-0_zjfe4o1yk98un-fill" data-item-order="-417203" transform="translate(396.66680908203125, 128)"><g id="cp_0_g-0_zjfe4o1yk98un-fill-merged" stroke="none" fill="url(#gradient-b6b6b6-338031228)" fill-opacity="1"><g><path d="M46 10 H10 V106 H46 V10"></path></g></g></g><g id="g-root-cp_0_g-0_zjfe4o1yk98un-stroke" data-item-order="-417203" transform="translate(396.66680908203125, 128)"><g id="cp_0_g-0_zjfe4o1yk98un-stroke" fill="none" stroke-linecap="round" stroke-linejoin="round" stroke-miterlimit="4" stroke="#ffffff" stroke-width="2" stroke-opacity="1"><g><path d="M 46 10L 10 10L 10 106L 46 106L 46 10Z"></path></g></g></g><g id="g-root-cp_1_lines-1-1_v3lw081yk99mw-fill" data-item-order="-417187" transform="translate(380.66680908203125, 292.005859375)"><g id="cp_1_lines-1-1_v3lw081yk99mw-fill-merged" stroke="none" fill="url(#gradient-0a5168-180609415)" fill-opacity="1"><g><path d="M18 14C18 16.209 16.209 18 14 18C11.791 18 10 16.209 10 14C10 11.791 11.791 10 14 10C16.209 10 18 11.791 18 14"></path></g></g></g><g id="g-root-cp_1_lines-1-1_v3lw081yk99mw-stroke" data-item-order="-417187" transform="translate(380.66680908203125, 292.005859375)"><g id="cp_1_lines-1-1_v3lw081yk99mw-stroke" fill="none" stroke-linecap="round" stroke-linejoin="round" stroke-miterlimit="4" stroke="#ffffff" stroke-width="2" stroke-opacity="1"><g><path d="M 18 14C 18 16.2091 16.2091 18 14 18C 11.7909 18 10 16.2091 10 14C 10 11.7909 11.7909 10 14 10C 16.2091 10 18 11.7909 18 14Z"></path></g></g></g><g id="g-root-cp_2_lines-1-2_v3lw081yk99mx-fill" data-item-order="-417175" transform="translate(380.66680908203125, 352.005859375)"><g id="cp_2_lines-1-2_v3lw081yk99mx-fill-merged" stroke="none" fill="url(#gradient-0a5168-180609415)" fill-opacity="1"><g><path d="M18 14C18 16.209 16.209 18 14 18C11.791 18 10 16.209 10 14C10 11.791 11.791 10 14 10C16.209 10 18 11.791 18 14"></path></g></g></g><g id="g-root-cp_2_lines-1-2_v3lw081yk99mx-stroke" data-item-order="-417175" transform="translate(380.66680908203125, 352.005859375)"><g id="cp_2_lines-1-2_v3lw081yk99mx-stroke" fill="none" stroke-linecap="round" stroke-linejoin="round" stroke-miterlimit="4" stroke="#ffffff" stroke-width="2" stroke-opacity="1"><g><path d="M 18 14C 18 16.2091 16.2091 18 14 18C 11.7909 18 10 16.2091 10 14C 10 11.7909 11.7909 10 14 10C 16.2091 10 18 11.7909 18 14Z"></path></g></g></g><g id="g-root-cp_3_lines-1-3_qnsdvs1yk9af6-fill" data-item-order="-417163" transform="translate(380.66680908203125, 430.005859375)"><g id="cp_3_lines-1-3_qnsdvs1yk9af6-fill-merged" stroke="none" fill="url(#gradient-0a5168-180609415)" fill-opacity="1"><g><path d="M18 14C18 16.209 16.209 18 14 18C11.791 18 10 16.209 10 14C10 11.791 11.791 10 14 10C16.209 10 18 11.791 18 14"></path></g></g></g><g id="g-root-cp_3_lines-1-3_qnsdvs1yk9af6-stroke" data-item-order="-417163" transform="translate(380.66680908203125, 430.005859375)"><g id="cp_3_lines-1-3_qnsdvs1yk9af6-stroke" fill="none" stroke-linecap="round" stroke-linejoin="round" stroke-miterlimit="4" stroke="#ffffff" stroke-width="2" stroke-opacity="1"><g><path d="M 18 14C 18 16.2091 16.2091 18 14 18C 11.7909 18 10 16.2091 10 14C 10 11.7909 11.7909 10 14 10C 16.2091 10 18 11.7909 18 14Z"></path></g></g></g><g id="g-root-cp_4_lines-1-4_qnsdvs1yk9af7-fill" data-item-order="-417149" transform="translate(380.66680908203125, 490.005859375)"><g id="cp_4_lines-1-4_qnsdvs1yk9af7-fill-merged" stroke="none" fill="url(#gradient-0a5168-180609415)" fill-opacity="1"><g><path d="M18 14C18 16.209 16.209 18 14 18C11.791 18 10 16.209 10 14C10 11.791 11.791 10 14 10C16.209 10 18 11.791 18 14"></path></g></g></g><g id="g-root-cp_4_lines-1-4_qnsdvs1yk9af7-stroke" data-item-order="-417149" transform="translate(380.66680908203125, 490.005859375)"><g id="cp_4_lines-1-4_qnsdvs1yk9af7-stroke" fill="none" stroke-linecap="round" stroke-linejoin="round" stroke-miterlimit="4" stroke="#ffffff" stroke-width="2" stroke-opacity="1"><g><path d="M 18 14C 18 16.2091 16.2091 18 14 18C 11.7909 18 10 16.2091 10 14C 10 11.7909 11.7909 10 14 10C 16.2091 10 18 11.7909 18 14Z"></path></g></g></g><g id="g-root-cp_0_g-0_1_hs5dmw1yk9b7w-fill" data-item-order="-417141" transform="translate(624.6668090820312, 128)"><g id="cp_0_g-0_1_hs5dmw1yk9b7w-fill-merged" stroke="none" fill="url(#gradient-b6b6b6-338031228)" fill-opacity="1"><g><path d="M46 10 H10 V106 H46 V10"></path></g></g></g><g id="g-root-cp_0_g-0_1_hs5dmw1yk9b7w-stroke" data-item-order="-417141" transform="translate(624.6668090820312, 128)"><g id="cp_0_g-0_1_hs5dmw1yk9b7w-stroke" fill="none" stroke-linecap="round" stroke-linejoin="round" stroke-miterlimit="4" stroke="#ffffff" stroke-width="2" stroke-opacity="1"><g><path d="M 46 10L 10 10L 10 106L 46 106L 46 10Z"></path></g></g></g><g id="g-root-cp_2_g-2_dcyclk1yk98ud-fill" data-item-order="-417137" transform="translate(434.16680908203125, 116)"><g id="cp_2_g-2_dcyclk1yk98ud-fill-merged" stroke="none" fill="url(#gradient-0d5694-314667925)" fill-opacity="1"><g><path d="M72.928 58.5C56.128 59.7 57.444 50.255 60.428 47C65.928 41 70.428 40 76.428 38C85.772 34.886 107.928 27.5 117.928 26L200.5 34 V106L169.928 109L106.928 52C102.595 53.667 89.728 57.3 72.928 58.5 M13.288 134.071C9.047 130.027 8.887 123.311 12.931 119.07L24.746 106.679C28.79 102.438 35.506 102.278 39.747 106.322C43.988 110.366 44.148 117.081 40.104 121.322L28.289 133.714C24.245 137.955 17.529 138.115 13.288 134.071 M28.176 149.341C23.935 145.298 23.775 138.582 27.819 134.341L39.634 121.95C43.678 117.709 50.394 117.549 54.634 121.592C58.875 125.636 59.035 132.352 54.992 136.593L43.177 148.984C39.133 153.225 32.417 153.385 28.176 149.341 M43.176 164.341C38.935 160.298 38.775 153.582 42.819 149.341L54.634 136.949C58.678 132.708 65.394 132.549 69.634 136.592C73.875 140.636 74.035 147.352 69.992 151.593L58.177 163.984C54.133 168.225 47.417 168.385 43.176 164.341 M58.176 179.341C53.935 175.298 53.775 168.582 57.819 164.341L69.634 151.949C73.677 147.708 80.394 147.549 84.634 151.592C88.875 155.636 89.035 162.352 84.992 166.593L73.177 178.984C69.133 183.225 62.417 183.385 58.176 179.341"></path></g></g><g id="cp_2_g-2_dcyclk1yk98ud-fill-merged" stroke="none" fill="url(#gradient-0d5694-314667925)" fill-opacity="1"><g><path d="M236.5 10 H476.5 V146.8 H236.5 V10"></path></g></g></g><g id="g-root-cp_2_g-2_dcyclk1yk98ud-stroke" data-item-order="-417137" transform="translate(434.16680908203125, 116)"><g id="cp_2_g-2_dcyclk1yk98ud-stroke" fill="none" stroke-linecap="round" stroke-linejoin="round" stroke-miterlimit="4" stroke="#ffffff" stroke-width="2" stroke-opacity="1"><g><path d="M 72.9282 58.5C 56.1282 59.7 57.4445 50.255 60.4284 47C 65.9285 41 70.4284 40 76.4284 38C 85.772 34.8855 107.9285 27.5 117.9281 26L 200.5 34L 200.5 106L 169.9281 109L 106.9281 52C 102.5948 53.6667 89.7282 57.3 72.9282 58.5ZM 13.2883 134.0709C 9.0474 130.0272 8.8875 123.3112 12.9312 119.0702L 24.7461 106.679C 28.7898 102.438 35.5058 102.2781 39.7467 106.3218C 43.9877 110.3655 44.1476 117.0815 40.1039 121.3224L 28.289 133.7137C 24.2453 137.9546 17.5293 138.1146 13.2883 134.0709ZM 28.176 149.3414C 23.9351 145.2977 23.7752 138.5817 27.8189 134.3407L 39.6338 121.9495C 43.6775 117.7085 50.3935 117.5486 54.6344 121.5923C 58.8754 125.636 59.0353 132.352 54.9916 136.593L 43.1767 148.9842C 39.133 153.2251 32.417 153.3851 28.176 149.3414ZM 43.176 164.3414C 38.9351 160.2977 38.7752 153.5817 42.8189 149.3407L 54.6338 136.9495C 58.6775 132.7085 65.3935 132.5486 69.6344 136.5923C 73.8754 140.636 74.0353 147.352 69.9916 151.593L 58.1767 163.9842C 54.133 168.2251 47.417 168.3851 43.176 164.3414ZM 58.176 179.3414C 53.9351 175.2977 53.7752 168.5817 57.8189 164.3407L 69.6338 151.9495C 73.6775 147.7085 80.3935 147.5486 84.6344 151.5923C 88.8754 155.636 89.0353 162.352 84.9916 166.593L 73.1767 178.9842C 69.133 183.2252 62.417 183.3851 58.176 179.3414Z"></path></g></g><g id="cp_2_g-2_dcyclk1yk98ud-stroke" fill="none" stroke-linecap="round" stroke-linejoin="round" stroke-miterlimit="4" stroke="#ffffff" stroke-width="2" stroke-opacity="1"><g><path d="M 236.5 10L 476.5 10L 476.5 146.799988L 236.5 146.799988L 236.5 10Z"></path></g></g></g><g id="g-root-cp_1_lines-2-1_dcyclk1yk98ue-fill" data-item-order="-417121" transform="translate(668.6668090820312, 284.800048828125)"><g id="cp_1_lines-2-1_dcyclk1yk98ue-fill-merged" stroke="none" fill="url(#gradient-0d5694-314667925)" fill-opacity="1"><g><path d="M18 14C18 16.209 16.209 18 14 18C11.791 18 10 16.209 10 14C10 11.791 11.791 10 14 10C16.209 10 18 11.791 18 14"></path></g></g></g><g id="g-root-cp_1_lines-2-1_dcyclk1yk98ue-stroke" data-item-order="-417121" transform="translate(668.6668090820312, 284.800048828125)"><g id="cp_1_lines-2-1_dcyclk1yk98ue-stroke" fill="none" stroke-linecap="round" stroke-linejoin="round" stroke-miterlimit="4" stroke="#ffffff" stroke-width="2" stroke-opacity="1"><g><path d="M 18 14C 18 16.2091 16.2091 18 14 18C 11.7909 18 10 16.2091 10 14C 10 11.7909 11.7909 10 14 10C 16.2091 10 18 11.7909 18 14Z"></path></g></g></g><g id="g-root-cp_2_lines-2-2_4hbcco1yk99n3-fill" data-item-order="-417109" transform="translate(668.6668090820312, 344.800048828125)"><g id="cp_2_lines-2-2_4hbcco1yk99n3-fill-merged" stroke="none" fill="url(#gradient-0d5694-314667925)" fill-opacity="1"><g><path d="M18 14C18 16.209 16.209 18 14 18C11.791 18 10 16.209 10 14C10 11.791 11.791 10 14 10C16.209 10 18 11.791 18 14"></path></g></g></g><g id="g-root-cp_2_lines-2-2_4hbcco1yk99n3-stroke" data-item-order="-417109" transform="translate(668.6668090820312, 344.800048828125)"><g id="cp_2_lines-2-2_4hbcco1yk99n3-stroke" fill="none" stroke-linecap="round" stroke-linejoin="round" stroke-miterlimit="4" stroke="#ffffff" stroke-width="2" stroke-opacity="1"><g><path d="M 18 14C 18 16.2091 16.2091 18 14 18C 11.7909 18 10 16.2091 10 14C 10 11.7909 11.7909 10 14 10C 16.2091 10 18 11.7909 18 14Z"></path></g></g></g><g id="g-root-cp_3_lines-2-3_8x4uh41yk99mo-fill" data-item-order="-417097" transform="translate(668.6668090820312, 404.800048828125)"><g id="cp_3_lines-2-3_8x4uh41yk99mo-fill-merged" stroke="none" fill="url(#gradient-0d5694-314667925)" fill-opacity="1"><g><path d="M18 14C18 16.209 16.209 18 14 18C11.791 18 10 16.209 10 14C10 11.791 11.791 10 14 10C16.209 10 18 11.791 18 14"></path></g></g></g><g id="g-root-cp_3_lines-2-3_8x4uh41yk99mo-stroke" data-item-order="-417097" transform="translate(668.6668090820312, 404.800048828125)"><g id="cp_3_lines-2-3_8x4uh41yk99mo-stroke" fill="none" stroke-linecap="round" stroke-linejoin="round" stroke-miterlimit="4" stroke="#ffffff" stroke-width="2" stroke-opacity="1"><g><path d="M 18 14C 18 16.2091 16.2091 18 14 18C 11.7909 18 10 16.2091 10 14C 10 11.7909 11.7909 10 14 10C 16.2091 10 18 11.7909 18 14Z"></path></g></g></g><g id="g-root-cp_4_lines-2-4_1hu881yk9afd-fill" data-item-order="-417085" transform="translate(668.6668090820312, 482.800048828125)"><defs><linearGradient id="gradient-0a5168-180609415" x2="0" y2="1"><stop offset="0" stop-color="#006585"></stop><stop offset="1" stop-color="#143d4a"></stop></linearGradient><linearGradient id="gradient-b6b6b6-338031228" x2="0" y2="1"><stop offset="0" stop-color="#c8c8c8"></stop><stop offset="1" stop-color="#a3a3a3"></stop></linearGradient><linearGradient id="gradient-0d5694-314667925" x2="0" y2="1"><stop offset="0" stop-color="#0067bd"></stop><stop offset="1" stop-color="#1a456a"></stop></linearGradient></defs><g id="cp_4_lines-2-4_1hu881yk9afd-fill-merged" stroke="none" fill="url(#gradient-0d5694-314667925)" fill-opacity="1"><g><path d="M18 14C18 16.209 16.209 18 14 18C11.791 18 10 16.209 10 14C10 11.791 11.791 10 14 10C16.209 10 18 11.791 18 14"></path></g></g></g><g id="g-root-cp_4_lines-2-4_1hu881yk9afd-stroke" data-item-order="-417085" transform="translate(668.6668090820312, 482.800048828125)"><g id="cp_4_lines-2-4_1hu881yk9afd-stroke" fill="none" stroke-linecap="round" stroke-linejoin="round" stroke-miterlimit="4" stroke="#ffffff" stroke-width="2" stroke-opacity="1"><g><path d="M 18 14C 18 16.2091 16.2091 18 14 18C 11.7909 18 10 16.2091 10 14C 10 11.7909 11.7909 10 14 10C 16.2091 10 18 11.7909 18 14Z"></path></g></g></g><g id="g-root-tx_guardafr_hv9r2g1ykc362-fill" data-item-order="0" transform="translate(684.6668090820312, 336.800048828125)"><g id="tx_guardafr_hv9r2g1ykc362-fill-merged" stroke="none" fill="#ffffff" fill-opacity="1"><g><text style="font: bold 15px &quot;DM Sans Regular&quot;, sans-serif; white-space: pre;" transform="translate(10, 28)" font-weight="bold" font-size="15px" font-family="'DM Sans Regular', sans-serif"><tspan x="2" y="1" dominant-baseline="ideographic">Guarda fragmentos de </tspan><tspan x="2" y="19" dominant-baseline="ideographic">texto en Delta.</tspan></text></g></g></g><g id="g-root-tx_guardafr_hv9r2g1ykc362-stroke" data-item-order="0" transform="translate(684.6668090820312, 336.800048828125)"></g><g id="g-root-tx_elclster_zisx1k1ykaq6d-fill" data-item-order="0" transform="translate(187.35430908203125, 344.005859375)"><g id="tx_elclster_zisx1k1ykaq6d-fill-merged" stroke="none" fill="#ffffff" fill-opacity="1"><g><text style="font: bold 15px &quot;DM Sans Regular&quot;, sans-serif; white-space: pre;" transform="translate(195.3125, 37)" font-weight="bold" font-size="15px" font-family="'DM Sans Regular', sans-serif"><tspan x="-183.31" y="-8" dominant-baseline="ideographic">El clúster de Spark calcula </tspan><tspan x="-182.91" y="10" dominant-baseline="ideographic">los vectores usando la API </tspan><tspan x="-113.63" y="28" dominant-baseline="ideographic">de embeddings.</tspan></text></g></g></g><g id="g-root-tx_elclster_zisx1k1ykaq6d-stroke" data-item-order="0" transform="translate(187.35430908203125, 344.005859375)"></g><g id="g-root-tx_sparkstr_1umse2w1ykc1s9-fill" data-item-order="0" transform="translate(684.6668090820312, 276.800048828125)"><g id="tx_sparkstr_1umse2w1ykc1s9-fill-merged" stroke="none" fill="#ffffff" fill-opacity="1"><g><text style="font: bold 15px &quot;DM Sans Regular&quot;, sans-serif; white-space: pre;" transform="translate(10, 28)" font-weight="bold" font-size="15px" font-family="'DM Sans Regular', sans-serif"><tspan x="2" y="1" dominant-baseline="ideographic">Spark Structured </tspan><tspan x="2" y="19" dominant-baseline="ideographic">Streaming procesa texto.</tspan></text></g></g></g><g id="g-root-tx_sparkstr_1umse2w1ykc1s9-stroke" data-item-order="0" transform="translate(684.6668090820312, 276.800048828125)"></g><g id="g-root-tx_vectorse_zpo4zs1ykc1z7-fill" data-item-order="0" transform="translate(684.6668090820312, 396.800048828125)"><g id="tx_vectorse_zpo4zs1ykc1z7-fill-merged" stroke="none" fill="#ffffff" fill-opacity="1"><g><text style="font: bold 15px &quot;DM Sans Regular&quot;, sans-serif; white-space: pre;" transform="translate(10, 37)" font-weight="bold" font-size="15px" font-family="'DM Sans Regular', sans-serif"><tspan x="2" y="-8" dominant-baseline="ideographic">Vector Search detecta </tspan><tspan x="2" y="10" dominant-baseline="ideographic">automáticamente cambios </tspan><tspan x="2" y="28" dominant-baseline="ideographic">en la tabla Delta.</tspan></text></g></g></g><g id="g-root-tx_vectorse_zpo4zs1ykc1z7-stroke" data-item-order="0" transform="translate(684.6668090820312, 396.800048828125)"></g><g id="g-root-tx_guardafr_1lt0t3c1ykao7a-fill" data-item-order="0" transform="translate(221.61993408203125, 422.005859375)"><g id="tx_guardafr_1lt0t3c1ykao7a-fill-merged" stroke="none" fill="#ffffff" fill-opacity="1"><g><text style="font: bold 15px &quot;DM Sans Regular&quot;, sans-serif; white-space: pre;" transform="translate(161.046875, 28)" font-weight="bold" font-size="15px" font-family="'DM Sans Regular', sans-serif"><tspan x="-149.05" y="1" dominant-baseline="ideographic">Guarda fragmentos y </tspan><tspan x="-126.61" y="19" dominant-baseline="ideographic">vectores en Delta.</tspan></text></g></g></g><g id="g-root-tx_guardafr_1lt0t3c1ykao7a-stroke" data-item-order="0" transform="translate(221.61993408203125, 422.005859375)"></g><g id="g-root-tx_sparkstr_qunlu01yk98uc-fill" data-item-order="0" transform="translate(195.04180908203125, 284.005859375)"><g id="tx_sparkstr_qunlu01yk98uc-fill-merged" stroke="none" fill="#ffffff" fill-opacity="1"><g><text style="font: bold 15px &quot;DM Sans Regular&quot;, sans-serif; white-space: pre;" transform="translate(187.625, 28)" font-weight="bold" font-size="15px" font-family="'DM Sans Regular', sans-serif"><tspan x="-120.13" y="1" dominant-baseline="ideographic">Spark Structured </tspan><tspan x="-175.63" y="19" dominant-baseline="ideographic">Streaming procesa texto.</tspan></text></g></g></g><g id="g-root-tx_sparkstr_qunlu01yk98uc-stroke" data-item-order="0" transform="translate(195.04180908203125, 284.005859375)"></g><g id="g-root-tx_pipeline_146qlag1ykapz4-fill" data-item-order="0" transform="translate(700.5730590820312, 152)"><g id="tx_pipeline_146qlag1ykapz4-fill-merged" stroke="none" fill="#ffffff" fill-opacity="1"><g><text style="font: bold 18px &quot;DM Sans Regular&quot;, sans-serif; white-space: pre;" transform="translate(90.09375, 42.39990234375)" font-weight="bold" font-size="18px" font-family="'DM Sans Regular', sans-serif"><tspan x="-40.53" y="-10.39" dominant-baseline="ideographic">Managed </tspan><tspan x="-78.09" y="11.2" dominant-baseline="ideographic">(Administrado por </tspan><tspan x="-50.19" y="32.79" dominant-baseline="ideographic">Databricks)</tspan></text></g></g></g><g id="g-root-tx_pipeline_146qlag1ykapz4-stroke" data-item-order="0" transform="translate(700.5730590820312, 152)"></g><g id="g-root-tx_pipeline_hvw85k1yk998j-fill" data-item-order="0" transform="translate(184.760498046875, 152)"><g id="tx_pipeline_hvw85k1yk998j-fill-merged" stroke="none" fill="#ffffff" fill-opacity="1"><g><text style="font: bold 20px &quot;DM Sans Regular&quot;, sans-serif; white-space: pre;" transform="translate(101.90625, 46.0029296875)" font-weight="bold" font-size="20px" font-family="'DM Sans Regular', sans-serif"><tspan x="-64.89" y="1" dominant-baseline="ideographic">Self-Managed </tspan><tspan x="-89.91" y="25" dominant-baseline="ideographic">(Autoadministrado)</tspan></text></g></g></g><g id="g-root-tx_pipeline_hvw85k1yk998j-stroke" data-item-order="0" transform="translate(184.760498046875, 152)"></g><g id="g-root-tx_vectorse_dhbo7c1ykaosv-fill" data-item-order="0" transform="translate(197.04180908203125, 482.005859375)"><g id="tx_vectorse_dhbo7c1ykaosv-fill-merged" stroke="none" fill="#ffffff" fill-opacity="1"><g><text style="font: bold 15px &quot;DM Sans Regular&quot;, sans-serif; white-space: pre;" transform="translate(185.625, 28)" font-weight="bold" font-size="15px" font-family="'DM Sans Regular', sans-serif"><tspan x="-173.63" y="1" dominant-baseline="ideographic">Vector Search sincroniza </tspan><tspan x="-167.05" y="19" dominant-baseline="ideographic">vectores precalculados.</tspan></text></g></g></g><g id="g-root-tx_vectorse_dhbo7c1ykaosv-stroke" data-item-order="0" transform="translate(197.04180908203125, 482.005859375)"></g><g id="g-root-tx_modelser_1lz9jyg1ykc35w-fill" data-item-order="0" transform="translate(684.6668090820312, 474.800048828125)"><g id="tx_modelser_1lz9jyg1ykc35w-fill-merged" stroke="none" fill="#ffffff" fill-opacity="1"><g><text style="font: bold 15px &quot;DM Sans Regular&quot;, sans-serif; white-space: pre;" transform="translate(10, 37)" font-weight="bold" font-size="15px" font-family="'DM Sans Regular', sans-serif"><tspan x="2" y="-8" dominant-baseline="ideographic">Model Serving calcula </tspan><tspan x="2" y="10" dominant-baseline="ideographic">vectores de forma </tspan><tspan x="2" y="28" dominant-baseline="ideographic">transparente.</tspan></text></g></g></g><g id="g-root-tx_modelser_1lz9jyg1ykc35w-stroke" data-item-order="0" transform="translate(684.6668090820312, 474.800048828125)"></g><g id="g-root-tx_integrac_1umse2w1yk9b0i-fill" data-item-order="0" transform="translate(294.88555908203125, 38)"><g id="tx_integrac_1umse2w1yk9b0i-fill-merged" stroke="none" fill="#ffffff" fill-opacity="1"><g><text style="font: bold 25px &quot;DM Sans Regular&quot;, sans-serif; white-space: pre;" transform="translate(243.78125, 25)" font-weight="bold" font-size="25px" font-family="'DM Sans Regular', sans-serif"><tspan x="-231.78" y="16" dominant-baseline="ideographic">Modelos de Generación de Embeddings</tspan></text></g></g></g><g id="g-root-tx_integrac_1umse2w1yk9b0i-stroke" data-item-order="0" transform="translate(294.88555908203125, 38)"></g></g></g></svg>