<?xml version="1.0" encoding="utf-8" standalone="yes"?>
<!DOCTYPE svg PUBLIC "-//W3C//DTD SVG 1.1//EN" "http://www.w3.org/Graphics/SVG/1.1/DTD/svg11.dtd">
<svg style="fill:none;stroke:none;fill-rule:evenodd;clip-rule:evenodd;stroke-linecap:round;stroke-linejoin:round;stroke-miterlimit:1.5;" version="1.1" xmlns="http://www.w3.org/2000/svg" xmlns:xlink="http://www.w3.org/1999/xlink" width="1040" height="585" viewBox="0 0 1040 585"><style class="text-font-style fontImports" data-font-family="DM Sans">@font-face {font-family: 'DM Sans Regular';src: url(https://fonts.napkin.ai/google-fonts/20250207/dm-sans/dm-sans_regular.ttf) format("truetype");font-weight: normal;font-style: normal;}</style><g id="items" style="isolation: isolate"><g id="blend" style="mix-blend-mode: normal"><g id="g-root-cp_1_g-1_m7z57a1x6cpot-fill" data-item-order="-392843" transform="translate(37.5, 222.2083740234375)"><g id="cp_1_g-1_m7z57a1x6cpot-fill-merged" stroke="none" fill="url(#gradient-44e3cf-19050597)" fill-opacity="0.7"><g><path d="M10 82 V10 H169.5L193.5 46L169.5 82 H10"></path></g></g></g><g id="g-root-cp_1_g-1_m7z57a1x6cpot-stroke" data-item-order="-392843" transform="translate(37.5, 222.2083740234375)"><g id="cp_1_g-1_m7z57a1x6cpot-stroke" fill="none" stroke-linecap="round" stroke-linejoin="round" stroke-miterlimit="4" stroke="#1a1a1a" stroke-width="2" stroke-opacity="1"><g><path d="M 22.000061 10L 166.000061 10M 165.500061 82L 169.000061 82L 193.000061 46L 169.000061 10L 165.500061 10M 22.000061 82L 166.000061 82M 22.000061 10L 10.000061 10L 10.000061 82L 22.000061 82"></path></g></g></g><g id="g-root-cp_2_g-2_hs5n2u1x6cqh2-fill" data-item-order="-392817" transform="translate(209.5, 222.2083740234375)"><g id="cp_2_g-2_hs5n2u1x6cqh2-fill-merged" stroke="none" fill="url(#gradient-07b2a3-365173347)" fill-opacity="0.8"><g><path d="M10 82L34 46L10 10 H191.5L215.5 46L191.5 82 H10"></path></g></g></g><g id="g-root-cp_2_g-2_hs5n2u1x6cqh2-stroke" data-item-order="-392817" transform="translate(209.5, 222.2083740234375)"><g id="cp_2_g-2_hs5n2u1x6cqh2-stroke" fill="none" stroke-linecap="round" stroke-linejoin="round" stroke-miterlimit="4" stroke="#1a1a1a" stroke-width="2" stroke-opacity="1"><g><path d="M 44 10L 188 10M 187.5 82L 191 82L 215 46L 191 10L 187.5 10M 44 82L 188 82M 44 10L 10 10L 34 46L 10 82L 44 82"></path></g></g></g><g id="g-root-cp_3_g-3_hs5n2u1x6cqh3-fill" data-item-order="-392791" transform="translate(403.5, 222.2083740234375)"><g id="cp_3_g-3_hs5n2u1x6cqh3-fill-merged" stroke="none" fill="url(#gradient-5249f2-123262092)" fill-opacity="0.7"><g><path d="M10 82L34 46L10 10 H191.5L215.5 46L191.5 82 H10"></path></g></g></g><g id="g-root-cp_3_g-3_hs5n2u1x6cqh3-stroke" data-item-order="-392791" transform="translate(403.5, 222.2083740234375)"><g id="cp_3_g-3_hs5n2u1x6cqh3-stroke" fill="none" stroke-linecap="round" stroke-linejoin="round" stroke-miterlimit="4" stroke="#1a1a1a" stroke-width="2" stroke-opacity="1"><g><path d="M 44 10L 188 10M 187.5 82L 191 82L 215 46L 191 10L 187.5 10M 44 82L 188 82M 44 10L 10 10L 34 46L 10 82L 44 82"></path></g></g></g><g id="g-root-cp_4_g-4_dcc4ye1x6cr9c-fill" data-item-order="-392765" transform="translate(597.5, 222.2083740234375)"><g id="cp_4_g-4_dcc4ye1x6cr9c-fill-merged" stroke="none" fill="url(#gradient-8543f6-329243703)" fill-opacity="0.7"><g><path d="M10 82L34 46L10 10 H191.5L215.5 46L191.5 82 H10"></path></g></g></g><g id="g-root-cp_4_g-4_dcc4ye1x6cr9c-stroke" data-item-order="-392765" transform="translate(597.5, 222.2083740234375)"><g id="cp_4_g-4_dcc4ye1x6cr9c-stroke" fill="none" stroke-linecap="round" stroke-linejoin="round" stroke-miterlimit="4" stroke="#1a1a1a" stroke-width="2" stroke-opacity="1"><g><path d="M 44 10L 188 10M 187.5 82L 191 82L 215 46L 191 10L 187.5 10M 44 82L 188 82M 44 10L 10 10L 34 46L 10 82L 44 82"></path></g></g></g><g id="g-root-cp_5_g-5_4hblsm1x6cow9-fill" data-item-order="-392739" transform="translate(791.5, 222.2083740234375)"><defs><linearGradient id="gradient-44e3cf-19050597" x2="0" y2="1"><stop offset="0" stop-color="#5af1de"></stop><stop offset="1" stop-color="#2dd4bf"></stop></linearGradient><linearGradient id="gradient-07b2a3-365173347" x2="0" y2="1"><stop offset="0" stop-color="#00d0bd"></stop><stop offset="1" stop-color="#0d9488"></stop></linearGradient><linearGradient id="gradient-5249f2-123262092" x2="0" y2="1"><stop offset="0" stop-color="#554bff"></stop><stop offset="1" stop-color="#4f46e5"></stop></linearGradient><linearGradient id="gradient-8543f6-329243703" x2="0" y2="1"><stop offset="0" stop-color="#8e4cff"></stop><stop offset="1" stop-color="#7c3aed"></stop></linearGradient><linearGradient id="gradient-d1a4fe-432587860" x2="0" y2="1"><stop offset="0" stop-color="#e1c4ff"></stop><stop offset="1" stop-color="#c084fc"></stop></linearGradient></defs><g id="cp_5_g-5_4hblsm1x6cow9-fill-merged" stroke="none" fill="url(#gradient-d1a4fe-432587860)" fill-opacity="1"><g><path d="M10 82L34 46L10 10 H191.5L215.5 46L191.5 82 H10"></path></g></g></g><g id="g-root-cp_5_g-5_4hblsm1x6cow9-stroke" data-item-order="-392739" transform="translate(791.5, 222.2083740234375)"><g id="cp_5_g-5_4hblsm1x6cow9-stroke" fill="none" stroke-linecap="round" stroke-linejoin="round" stroke-miterlimit="4" stroke="#1a1a1a" stroke-width="2" stroke-opacity="1"><g><path d="M 44 10L 188 10M 187.5 82L 191 82L 215 46L 191 10L 187.5 10M 44 82L 188 82M 44 10L 10 10L 34 46L 10 82L 44 82"></path></g></g></g><g id="g-root-tx_pipeline_4hblsm1x6cowa-fill" data-item-order="0" transform="translate(307.0833740234375, 84.2083740234375)"><g id="tx_pipeline_4hblsm1x6cowa-fill-merged" stroke="none" fill="#1a1a1a" fill-opacity="1"><g><text style="font: bold 25px &quot;DM Sans Regular&quot;, sans-serif; white-space: pre;" transform="translate(212.4166259765625, 25)" font-weight="bold" font-size="25px" font-family="'DM Sans Regular', sans-serif"><tspan x="-200.42" y="16.11" dominant-baseline="ideographic">Pipeline de Limpieza de Contenido</tspan></text></g></g></g><g id="g-root-tx_pipeline_4hblsm1x6cowa-stroke" data-item-order="0" transform="translate(307.0833740234375, 84.2083740234375)"></g><g id="g-root-ic_2_6hwd21x6cp38-fill" data-item-order="0" transform="translate(97.5, 162.2083740234375)"></g><g id="g-root-ic_2_6hwd21x6cp38-stroke" data-item-order="0" transform="translate(97.5, 162.2083740234375)"><g id="ic_2_6hwd21x6cp38-stroke" fill="none" stroke-linecap="round" stroke-linejoin="round" stroke-miterlimit="4" stroke="#1a1a1a" stroke-width="2" stroke-opacity="1"><g><path d="M 30.846062 48.051998L 10.998061 48.051998L 10.998061 19.25L 23.846062 19.25L 30.846062 25.25L 30.846062 48.051998ZM 35.712059 26.851999L 39.358063 23.91M 35.712059 42.646L 39.358063 45.588001M 42.998062 46.25L 56.998062 46.25M 49.998062 46.25L 49.998062 42.75M 53.816063 46.25C 53.816063 46.25 52.862061 56.75 43.316063 56.75M 47.48806 50.243999C 48.852097 54.153755 52.547226 56.766853 56.688061 56.75M 46.498062 27.584L 46.498062 20.584C 46.498062 18.651005 48.065067 17.084 49.998062 17.084C 51.931061 17.084 53.498062 18.651005 53.498062 20.584L 53.498062 27.584M 46.498062 22.916L 53.498062 22.916M 44.164063 13.584C 44.164063 13.584 46.498062 11.25 47.664063 11.25C 48.830063 11.25 52.330063 13.584 53.498062 13.584C 54.666061 13.584 57.000061 11.25 57.000061 11.25"></path></g></g></g><g id="g-root-ic_1_hva0ie1x6s6io-fill" data-item-order="0" transform="translate(291.5, 162.2083740234375)"></g><g id="g-root-ic_1_hva0ie1x6s6io-stroke" data-item-order="0" transform="translate(291.5, 162.2083740234375)"><g id="ic_1_hva0ie1x6s6io-stroke" fill="none" stroke-linecap="round" stroke-linejoin="round" stroke-miterlimit="4" stroke="#1a1a1a" stroke-width="2" stroke-opacity="1"><g><path d="M 29.084 57L 13.084 57C 11.97943 57 11.084 56.104568 11.084 55L 11.084 13C 11.084 11.895431 11.97943 11 13.084 11L 39.669998 11C 40.202408 11.003817 40.711319 11.219762 41.084 11.6L 48.498001 19C 48.8731 19.374985 49.083885 19.88361 49.084 20.414L 49.084 27M 23.084 24.007999L 17.084 30.007999L 23.084 36.007999M 29.084 24.007999L 35.084 30.007999L 29.084 36.007999M 33.084 45.007999C 33.084 51.635418 38.456585 57.007999 45.084 57.007999C 51.711418 57.007999 57.084 51.635418 57.084 45.007999C 57.084 38.380585 51.711418 33.008003 45.084 33.008003C 38.456585 33.008003 33.084 38.380585 33.084 45.007999ZM 36.598 53.492001L 53.57 36.521999"></path></g></g></g><g id="g-root-ic_side_mg3ehi1x6ic5j-fill" data-item-order="0" transform="translate(485.5, 162.2083740234375)"></g><g id="g-root-ic_side_mg3ehi1x6ic5j-stroke" data-item-order="0" transform="translate(485.5, 162.2083740234375)"><g id="ic_side_mg3ehi1x6ic5j-stroke" fill="none" stroke-linecap="round" stroke-linejoin="round" stroke-miterlimit="4" stroke="#1a1a1a" stroke-width="2" stroke-opacity="1"><g><path d="M 17.248039 21.900021C 18.9049 21.900021 20.248039 20.556881 20.248039 18.900021C 20.248039 17.243179 18.9049 15.900021 17.248039 15.900021C 15.5912 15.900021 14.24804 17.243179 14.24804 18.900021C 14.24804 20.556881 15.5912 21.900021 17.248039 21.900021ZM 10 10M 20.248039 18.900021L 30.996 18.900021M 14.5 36.900002C 16.15686 36.900002 17.5 35.556801 17.5 33.900002C 17.5 32.243202 16.15686 30.9 14.5 30.9C 12.84314 30.9 11.5 32.243202 11.5 33.900002C 11.5 35.556801 12.84314 36.900002 14.5 36.900002ZM 10 10M 17.5 33.900002L 30.996 33.900002M 17.248039 51.900002C 18.9049 51.900002 20.248039 50.556801 20.248039 48.900002C 20.248039 47.243198 18.9049 45.900002 17.248039 45.900002C 15.5912 45.900002 14.24804 47.243198 14.24804 48.900002C 14.24804 50.556801 15.5912 51.900002 17.248039 51.900002ZM 10 10M 20.25 48.900002L 30.996 48.900002M 21.248039 41.900002L 25.248039 41.900002L 25.248039 48.888802M 24.12208 26.900021L 30.996 26.900021M 30.996 11.900024C 47.195999 11.900024 50.596001 25.100021 56.396 40.099998C 56.796001 41.299999 55.995998 42.5 54.796001 42.5L 50.596001 42.5L 50.596001 49.299999C 50.596001 53.099998 47.596001 56.099998 43.796001 56.099998L 30.996 56.099998L 30.996 11.900024ZM 44.593601 44.900002C 45.593601 46.900002 48.593601 46.900002 50.593601 46.900002M 43.596001 32.299801C 43.375198 32.299801 43.195999 32.1208 43.195999 31.899799C 43.195999 31.679001 43.375198 31.4998 43.596001 31.4998M 43.596001 32.299801C 43.816799 32.299801 43.995998 32.1208 43.995998 31.899799C 43.995998 31.679001 43.816799 31.4998 43.596001 31.4998"></path></g></g></g><g id="g-root-ic_3_zs6dxy1x6mk21-fill" data-item-order="0" transform="translate(679.5, 162.2083740234375)"></g><g id="g-root-ic_3_zs6dxy1x6mk21-stroke" data-item-order="0" transform="translate(679.5, 162.2083740234375)"><g id="ic_3_zs6dxy1x6mk21-stroke" fill="none" stroke-linecap="round" stroke-linejoin="round" stroke-miterlimit="4" stroke="#1a1a1a" stroke-width="2" stroke-opacity="1"><g><path d="M 21.105999 22.032C 18.756973 21.700588 16.391308 21.500278 14.02 21.431999C 12.551581 21.243511 11.204926 22.271786 11 23.737999L 11 48.122002C 11.209008 49.519474 12.465717 50.515572 13.874 50.399998C 31.879999 51 34 56.970001 34 56.970001M 47.029999 22.012001C 49.334328 21.690807 51.654423 21.495184 53.98 21.425999C 55.450459 21.237705 56.798031 22.269358 57 23.737999L 57 48.122002C 56.790993 49.519474 55.534283 50.515572 54.125999 50.399998C 36.120003 51 34 56.970001 34 56.970001M 34 56.599998L 34 45.085999M 44.874001 39.029999C 44.874001 40.134567 43.978569 41.029999 42.874001 41.029999L 24.874001 41.029999C 23.76943 41.029999 22.874001 40.134567 22.874001 39.029999L 22.874001 32.029999C 22.874001 25.954868 27.798868 21.030001 33.874001 21.030001C 39.949135 21.030001 44.874001 25.954868 44.874001 32.029999ZM 22.874001 35.029999L 44.874001 35.029999M 28.874001 29.530001C 28.874001 29.806143 29.097858 30.030001 29.374001 30.030001C 29.650143 30.030001 29.874001 29.806143 29.874001 29.530001C 29.874001 29.253859 29.650143 29.030001 29.374001 29.030001C 29.097858 29.030001 28.874001 29.253859 28.874001 29.530001M 37.874001 29.530001C 37.874001 29.806143 38.097858 30.030001 38.374001 30.030001C 38.650143 30.030001 38.874001 29.806143 38.874001 29.530001C 38.874001 29.253859 38.650143 29.030001 38.374001 29.030001C 38.097858 29.030001 37.874001 29.253859 37.874001 29.530001M 33.874001 21.029999L 33.874001 17.030001M 30.874001 14.030001C 30.874001 15.686854 32.217148 17.030001 33.874001 17.030001C 35.530853 17.030001 36.874001 15.686854 36.874001 14.030001C 36.874001 12.373146 35.530853 11.03 33.874001 11.03C 32.217148 11.03 30.874001 12.373146 30.874001 14.030001"></path></g></g></g><g id="g-root-ic_spar_1hf32ty1x6s5xd-fill" data-item-order="0" transform="translate(873.5, 162.2083740234375)"></g><g id="g-root-ic_spar_1hf32ty1x6s5xd-stroke" data-item-order="0" transform="translate(873.5, 162.2083740234375)"><g id="ic_spar_1hf32ty1x6s5xd-stroke" fill="none" stroke-linecap="round" stroke-linejoin="round" stroke-miterlimit="4" stroke="#1a1a1a" stroke-width="2" stroke-opacity="1"><g><path d="M 35.783199 45.4426C 40.407799 44.513 44.131199 40.744202 45.062401 36C 45.993401 40.744202 49.716 44.513 54.340599 45.4426M 54.340599 45.448002C 49.716 46.3778 45.992599 50.1464 45.061401 54.890598C 44.130402 50.1464 40.407799 46.3778 35.783199 45.448002M 28.13868 27.5879C 36.135002 27.5879 42.617199 24.34676 42.617199 20.34864C 42.617199 16.3505 36.135002 13.10938 28.13868 13.10938C 20.142399 13.10938 13.66016 16.3505 13.66016 20.34864C 13.66016 24.34676 20.142399 27.5879 28.13868 27.5879ZM 13.66016 20.351559L 13.66016 32.658199C 13.66016 36.639801 20.17548 39.897598 28.13868 39.897598C 30.6276 39.897598 32.975201 39.579201 35.0266 39.020203M 42.617199 31.142401L 42.617199 20.351559M 13.66016 32.648399L 13.66016 44.9552C 13.66016 48.936798 20.17548 52.194599 28.13868 52.194599C 30.698 52.194599 33.108002 51.858002 35.200001 51.269001"></path></g></g></g><g id="g-root-tx_extracci_qqx0ra1x6cq2z-fill" data-item-order="0" transform="translate(67.65106201171875, 234.208251953125)"><g id="tx_extracci_qqx0ra1x6cq2z-fill-merged" stroke="none" fill="#1a1a1a" fill-opacity="1"><g><text style="font: bold 20px &quot;DM Sans Regular&quot;, sans-serif; white-space: pre;" transform="translate(63.84893798828125, 33.99658203125)" font-weight="bold" font-size="20px" font-family="'DM Sans Regular', sans-serif"><tspan x="-51.85" y="0.45" dominant-baseline="ideographic">Extracción </tspan><tspan x="-21.45" y="24.44" dominant-baseline="ideographic">Raw</tspan></text></g></g></g><g id="g-root-tx_extracci_qqx0ra1x6cq2z-stroke" data-item-order="0" transform="translate(67.65106201171875, 234.208251953125)"></g><g id="g-root-tx_filtrode_1q6z5ee1x6s55b-fill" data-item-order="0" transform="translate(246.6163330078125, 246.204833984375)"><g id="tx_filtrode_1q6z5ee1x6s55b-fill-merged" stroke="none" fill="#1a1a1a" fill-opacity="1"><g><text style="font: bold 20px &quot;DM Sans Regular&quot;, sans-serif; white-space: pre;" transform="translate(78.8836669921875, 22)" font-weight="bold" font-size="20px" font-family="'DM Sans Regular', sans-serif"><tspan x="-66.88" y="12.44" dominant-baseline="ideographic">Filtro de Ruido</tspan></text></g></g></g><g id="g-root-tx_filtrode_1q6z5ee1x6s55b-stroke" data-item-order="0" transform="translate(246.6163330078125, 246.204833984375)"></g><g id="g-root-tx_chunking_hx5ixi1x6ibri-fill" data-item-order="0" transform="translate(459.045166015625, 234.208251953125)"><g id="tx_chunking_hx5ixi1x6ibri-fill-merged" stroke="none" fill="#1a1a1a" fill-opacity="1"><g><text style="font: bold 20px &quot;DM Sans Regular&quot;, sans-serif; white-space: pre;" transform="translate(60.454833984375, 33.99658203125)" font-weight="bold" font-size="20px" font-family="'DM Sans Regular', sans-serif"><tspan x="-43.18" y="0.45" dominant-baseline="ideographic">Chunking </tspan><tspan x="-48.45" y="24.44" dominant-baseline="ideographic">Inteligente</tspan></text></g></g></g><g id="g-root-tx_chunking_hx5ixi1x6ibri-stroke" data-item-order="0" transform="translate(459.045166015625, 234.208251953125)"></g><g id="g-root-tx_generaci_zp20ie1x6mjnk-fill" data-item-order="0" transform="translate(632.3853759765625, 234.208251953125)"><g id="tx_generaci_zp20ie1x6mjnk-fill-merged" stroke="none" fill="#1a1a1a" fill-opacity="1"><g><text style="font: bold 20px &quot;DM Sans Regular&quot;, sans-serif; white-space: pre;" transform="translate(81.1146240234375, 33.99658203125)" font-weight="bold" font-size="20px" font-family="'DM Sans Regular', sans-serif"><tspan x="-69.11" y="0.45" dominant-baseline="ideographic">Generación de </tspan><tspan x="-58.68" y="24.44" dominant-baseline="ideographic">Embeddings</tspan></text></g></g></g><g id="g-root-tx_generaci_zp20ie1x6mjnk-stroke" data-item-order="0" transform="translate(632.3853759765625, 234.208251953125)"></g><g id="g-root-tx_cargaend_18gbp5i1x6s6bk-fill" data-item-order="0" transform="translate(826.4461669921875, 234.208251953125)"><g id="tx_cargaend_18gbp5i1x6s6bk-fill-merged" stroke="none" fill="#1a1a1a" fill-opacity="1"><g><text style="font: bold 20px &quot;DM Sans Regular&quot;, sans-serif; white-space: pre;" transform="translate(81.0538330078125, 33.99658203125)" font-weight="bold" font-size="20px" font-family="'DM Sans Regular', sans-serif"><tspan x="-69.05" y="0.45" dominant-baseline="ideographic">Carga en Delta </tspan><tspan x="-25.44" y="24.44" dominant-baseline="ideographic">Table</tspan></text></g></g></g><g id="g-root-tx_cargaend_18gbp5i1x6s6bk-stroke" data-item-order="0" transform="translate(826.4461669921875, 234.208251953125)"></g><g id="g-root-tx_eliminar_959d7a1x6gx6r-fill" data-item-order="0" transform="translate(220.902587890625, 318.201416015625)"><g id="tx_eliminar_959d7a1x6gx6r-fill-merged" stroke="none" fill="#1a1a1a" fill-opacity="1"><g><text style="font: 15px &quot;DM Sans Regular&quot;, sans-serif; white-space: pre;" transform="translate(104.597412109375, 64.0086669921875)" font-size="15px" font-family="'DM Sans Regular', sans-serif"><tspan x="-92.39" y="-36.23" dominant-baseline="ideographic">Ejecutar funciones UDF de </tspan><tspan x="-74.92" y="-18.23" dominant-baseline="ideographic">PySpark y Regex para </tspan><tspan x="-76.66" y="-0.22" dominant-baseline="ideographic">eliminar código HTML, </tspan><tspan x="-81.74" y="17.78" dominant-baseline="ideographic">disclaimers repetidos y </tspan><tspan x="-88.85" y="35.78" dominant-baseline="ideographic">boilerplate irrelevante del </tspan><tspan x="-20.03" y="53.79" dominant-baseline="ideographic">texto.</tspan></text></g></g></g><g id="g-root-tx_eliminar_959d7a1x6gx6r-stroke" data-item-order="0" transform="translate(220.902587890625, 318.201416015625)"></g><g id="g-root-tx_obtenerp_hx5frq1x6qrd8-fill" data-item-order="0" transform="translate(50.55035400390625, 318.201416015625)"><g id="tx_obtenerp_hx5frq1x6qrd8-fill-merged" stroke="none" fill="#1a1a1a" fill-opacity="1"><g><text style="font: 15px &quot;DM Sans Regular&quot;, sans-serif; white-space: pre;" transform="translate(80.94964599609375, 82.01220703125)" font-size="15px" font-family="'DM Sans Regular', sans-serif"><tspan x="-59.9" y="-54.23" dominant-baseline="ideographic">Ingestar archivos </tspan><tspan x="-68.95" y="-36.23" dominant-baseline="ideographic">crudos (PDF, HTML) </tspan><tspan x="-45.23" y="-18.23" dominant-baseline="ideographic">desde Cloud </tspan><tspan x="-62.77" y="-0.22" dominant-baseline="ideographic">Storage mediante </tspan><tspan x="-56.59" y="17.78" dominant-baseline="ideographic">Databricks Auto </tspan><tspan x="-68.91" y="35.78" dominant-baseline="ideographic">Loader hacia tablas </tspan><tspan x="-47.53" y="53.79" dominant-baseline="ideographic">Delta en nivel </tspan><tspan x="-26.15" y="71.79" dominant-baseline="ideographic">Bronze.</tspan></text></g></g></g><g id="g-root-tx_obtenerp_hx5frq1x6qrd8-stroke" data-item-order="0" transform="translate(50.55035400390625, 318.201416015625)"></g><g id="g-root-tx_dividire_dbpr121x6mkgd-fill" data-item-order="0" transform="translate(437.8819580078125, 318.201416015625)"><g id="tx_dividire_dbpr121x6mkgd-fill-merged" stroke="none" fill="#1a1a1a" fill-opacity="1"><g><text style="font: 15px &quot;DM Sans Regular&quot;, sans-serif; white-space: pre;" transform="translate(81.6180419921875, 91.013916015625)" font-size="15px" font-family="'DM Sans Regular', sans-serif"><tspan x="-68.33" y="-63.24" dominant-baseline="ideographic">Fragmentar el texto </tspan><tspan x="-65.49" y="-45.23" dominant-baseline="ideographic">utilizando técnicas </tspan><tspan x="-39.08" y="-27.23" dominant-baseline="ideographic">de ventana </tspan><tspan x="-50.54" y="-9.23" dominant-baseline="ideographic">deslizante con </tspan><tspan x="-33.09" y="8.78" dominant-baseline="ideographic">tamaño y </tspan><tspan x="-47.47" y="26.78" dominant-baseline="ideographic">solapamiento </tspan><tspan x="-66.61" y="44.78" dominant-baseline="ideographic">(overlap) ajustados </tspan><tspan x="-69.62" y="62.79" dominant-baseline="ideographic">según la ventana de </tspan><tspan x="-32.85" y="80.79" dominant-baseline="ideographic">contexto.</tspan></text></g></g></g><g id="g-root-tx_dividire_dbpr121x6mkgd-stroke" data-item-order="0" transform="translate(437.8819580078125, 318.201416015625)"></g><g id="g-root-tx_crearvec_18k2jo61x6qq6d-fill" data-item-order="0" transform="translate(631.61279296875, 318.201416015625)"><g id="tx_crearvec_18k2jo61x6qq6d-fill-merged" stroke="none" fill="#1a1a1a" fill-opacity="1"><g><text style="font: 15px &quot;DM Sans Regular&quot;, sans-serif; white-space: pre;" transform="translate(81.88720703125, 82.01220703125)" font-size="15px" font-family="'DM Sans Regular', sans-serif"><tspan x="-62.51" y="-54.23" dominant-baseline="ideographic"> Calcular vectores </tspan><tspan x="-62.14" y="-36.23" dominant-baseline="ideographic">densos para cada </tspan><tspan x="-69.89" y="-18.23" dominant-baseline="ideographic">fragmento llamando </tspan><tspan x="-36.17" y="-0.22" dominant-baseline="ideographic">a modelos </tspan><tspan x="-54.75" y="17.78" dominant-baseline="ideographic">fundacionales a </tspan><tspan x="-69.75" y="35.78" dominant-baseline="ideographic">través de endpoints </tspan><tspan x="-48.13" y="53.79" dominant-baseline="ideographic">de Databricks </tspan><tspan x="-50.63" y="71.79" dominant-baseline="ideographic">Model Serving.</tspan></text></g></g></g><g id="g-root-tx_crearvec_18k2jo61x6qq6d-stroke" data-item-order="0" transform="translate(631.61279296875, 318.201416015625)"></g><g id="g-root-tx_almacena_1d2dy521x6tkhy-fill" data-item-order="0" transform="translate(831.8975830078125, 318.201416015625)"><g id="tx_almacena_1d2dy521x6tkhy-fill-merged" stroke="none" fill="#1a1a1a" fill-opacity="1"><g><text style="font: 15px &quot;DM Sans Regular&quot;, sans-serif; white-space: pre;" transform="translate(75.6024169921875, 91.013916015625)" font-size="15px" font-family="'DM Sans Regular', sans-serif"><tspan x="-30.25" y="-63.24" dominant-baseline="ideographic">Guardar </tspan><tspan x="-43.24" y="-45.23" dominant-baseline="ideographic">fragmentos, </tspan><tspan x="-45.72" y="-27.23" dominant-baseline="ideographic">metadatos y </tspan><tspan x="-57.39" y="-9.23" dominant-baseline="ideographic">vectores en una </tspan><tspan x="-63.45" y="8.78" dominant-baseline="ideographic">tabla Delta a nivel </tspan><tspan x="-49.19" y="26.78" dominant-baseline="ideographic">Gold en Unity </tspan><tspan x="-63.6" y="44.78" dominant-baseline="ideographic">Catalog, lista para </tspan><tspan x="-54.66" y="62.79" dominant-baseline="ideographic">sincronizar con </tspan><tspan x="-52.44" y="80.79" dominant-baseline="ideographic">Vector Search.</tspan></text></g></g></g><g id="g-root-tx_almacena_1d2dy521x6tkhy-stroke" data-item-order="0" transform="translate(831.8975830078125, 318.201416015625)"></g></g></g></svg>